<svg width="25" height="24" viewBox="0 0 25 24" fill="none" xmlns="http://www.w3.org/2000/svg">
<path d="M-3.5 -1H27.5V25H-3.5V-1Z" fill="#012169"/>
<path d="M0.132812 -1L11.9516 8.80417L23.7219 -1H27.5V2.35833L15.875 12.0542L27.5 21.6958V25H23.625L12 15.3042L0.423437 25H-3.5V21.75L8.07656 12.1083L-3.5 2.46667V-1H0.132812Z" fill="white"/>
<path d="M17.0375 14.2208L27.5 22.8333V25L14.3734 14.2208H17.0375ZM8.125 15.3042L8.41562 17.2L-0.884375 25H-3.5L8.125 15.3042ZM27.5 -1V-0.8375L15.4391 9.34583L15.5359 6.9625L25.0781 -1H27.5ZM-3.5 -1L8.07656 8.53333H5.17031L-3.5 1.275V-1Z" fill="#C8102E"/>
<path d="M8.17344 -1V25H15.9234V-1H8.17344ZM-3.5 7.66667V16.3333H27.5V7.66667H-3.5Z" fill="white"/>
<path d="M-3.5 9.45417V14.6542H27.5V9.45417H-3.5ZM9.72344 -1V25H14.3734V-1H9.72344Z" fill="#C8102E"/>
</svg>
