<svg width="71" height="24" viewBox="0 0 71 24" fill="none" xmlns="http://www.w3.org/2000/svg">
<path d="M58.2156 11.6593C58.724 11.564 59.1582 11.3734 59.5183 11.0874C59.8784 10.7909 60.1431 10.4308 60.302 9.99657C60.4715 9.56234 60.5138 9.10693 60.4291 8.61975C60.3444 8.13257 60.1431 7.71952 59.836 7.37003C59.5289 7.02053 59.1582 6.76634 58.7134 6.61807C58.2686 6.4698 57.8026 6.43803 57.3048 6.52275C56.8706 6.59689 56.4893 6.73457 56.1504 6.9358C55.8115 7.13703 55.5361 7.39121 55.2925 7.70893L55.9174 11.2675C56.2245 11.4581 56.5846 11.5958 56.9765 11.6699C57.3683 11.7441 57.7814 11.7441 58.205 11.6699L58.2156 11.6593ZM54.0851 19.0094L51.6069 4.92353L54.6782 4.38339L54.8053 5.13535C55.5043 4.40458 56.3622 3.94917 57.3789 3.76912C58.3533 3.59967 59.2747 3.6738 60.1326 4.00212C61.001 4.33044 61.7318 4.84939 62.3249 5.55898C62.9285 6.26857 63.3098 7.10525 63.4793 8.07961C63.6487 9.05398 63.5746 9.97538 63.2463 10.8438C62.918 11.7123 62.3884 12.4537 61.6788 13.0573C60.9586 13.661 60.1114 14.0529 59.1158 14.2223C58.6392 14.3071 58.1732 14.3282 57.7178 14.2859C57.2624 14.2435 56.8176 14.1482 56.4046 13.9999L57.1883 18.4587L54.0746 19.0094H54.0851ZM45.7713 13.8622C46.2797 13.7669 46.7139 13.5763 47.074 13.2903C47.4341 12.9938 47.6988 12.6337 47.8577 12.1995C48.0272 11.7652 48.0695 11.3098 47.9848 10.8227C47.9001 10.3355 47.6988 9.92243 47.4023 9.57293C47.0952 9.22343 46.7245 8.96925 46.2797 8.82098C45.8348 8.6727 45.3688 8.64093 44.8711 8.72566C44.4368 8.7998 44.045 8.93748 43.7167 9.1387C43.3778 9.33993 43.0918 9.59411 42.8588 9.91184L43.4837 13.4704C43.7908 13.661 44.1509 13.7987 44.5428 13.8728C44.9346 13.947 45.3477 13.947 45.7713 13.8728V13.8622ZM41.6409 21.2123L39.1626 7.12643L42.2339 6.5863L42.361 7.33825C43.06 6.60748 43.9179 6.15207 44.9346 5.97203C45.909 5.80257 46.8304 5.87671 47.6883 6.20503C48.5567 6.53334 49.2875 7.0523 49.8806 7.76189C50.4842 8.47148 50.8655 9.30816 51.035 10.2825C51.2044 11.2569 51.1303 12.1783 50.802 13.0467C50.4737 13.9152 49.9441 14.6566 49.2345 15.2602C48.5143 15.8639 47.6671 16.2452 46.6715 16.4252C46.1949 16.51 45.7289 16.5311 45.2735 16.4888C44.8181 16.4464 44.3839 16.3511 43.9603 16.2028L44.744 20.6616L41.6303 21.2123H41.6409ZM31.9608 15.7474C32.0137 16.0651 32.2044 16.2876 32.5115 16.4252C32.8292 16.5523 33.2317 16.5735 33.7295 16.4888C34.1001 16.4252 34.439 16.3193 34.7568 16.1922C35.0745 16.0546 35.3499 15.8851 35.5829 15.6733L35.3499 14.3706C35.0427 14.3494 34.7356 14.3388 34.4179 14.36C34.1001 14.3706 33.7824 14.413 33.4647 14.4659C32.9245 14.5612 32.5221 14.7201 32.2573 14.9425C31.9925 15.1649 31.8866 15.4403 31.9502 15.758L31.9608 15.7474ZM33.2529 18.8294C32.5327 18.9565 31.876 18.9353 31.2724 18.7658C30.6687 18.5964 30.1709 18.2998 29.7685 17.8868C29.366 17.4631 29.1224 16.9548 29.0059 16.3405C28.8365 15.3661 29.0695 14.5506 29.7155 13.8834C30.3616 13.2268 31.3359 12.7714 32.6598 12.5384C33.4541 12.4007 34.2378 12.3583 35.011 12.4219L34.9262 11.9241C34.8309 11.4157 34.6085 11.0557 34.2378 10.865C33.8671 10.6744 33.3588 10.632 32.7233 10.7485C32.3209 10.8227 31.8972 10.9603 31.4206 11.1722C30.9546 11.384 30.4039 11.6911 29.7896 12.0936L28.2751 10.0072C29.0377 9.4882 29.8002 9.06457 30.5416 8.74684C31.283 8.42911 32.0455 8.19611 32.8292 8.05843C34.2378 7.81484 35.3922 7.95252 36.2925 8.49266C37.1927 9.0222 37.754 9.90125 37.9658 11.1192L39.1096 17.6326L36.0383 18.1727L35.9324 17.5585C35.5723 17.908 35.1804 18.1939 34.7462 18.3951C34.312 18.5964 33.8248 18.7446 33.274 18.84L33.2529 18.8294Z" fill="#407AFF"/>
<path d="M18.2347 21.2759L16.4448 11.1086L19.5585 10.5579L19.6856 11.2463C20.3529 10.5261 21.2107 10.0707 22.2592 9.88006C23.0535 9.74238 23.7843 9.78475 24.4515 10.0283C25.1188 10.2719 25.6801 10.6638 26.1355 11.2145C26.5909 11.7652 26.8874 12.4431 27.0251 13.2586L28.1266 19.5178L25.0129 20.0685L23.9855 14.2223C23.8902 13.661 23.636 13.2374 23.2442 12.962C22.8523 12.6867 22.3757 12.6019 21.8144 12.6972C21.412 12.7714 21.0836 12.8985 20.8083 13.0891C20.5329 13.2797 20.3105 13.5233 20.1305 13.8199L21.3484 20.6934L18.2347 21.2441V21.2759Z" fill="#407AFF"/>
<path d="M12.5052 22.4939C11.5414 22.6634 10.6306 22.7057 9.77276 22.6316C8.9149 22.5469 8.14177 22.3456 7.46395 22.0173L8.57599 19.6662C9.28558 19.9415 9.92104 20.111 10.4718 20.1957C11.0225 20.2804 11.5626 20.2698 12.071 20.1851C12.5793 20.0898 12.9818 19.9521 13.2572 19.7509C13.5325 19.5497 13.649 19.3272 13.6067 19.0837C13.5749 18.893 13.4584 18.7447 13.2783 18.66C13.0877 18.5647 12.8123 18.5223 12.4417 18.5435L10.3659 18.5965C9.32795 18.6177 8.49127 18.4164 7.87699 17.9928C7.25213 17.5692 6.87086 16.9443 6.72259 16.1076C6.60609 15.4192 6.66963 14.7943 6.9344 14.233C7.19918 13.6823 7.6334 13.2163 8.24768 12.835C8.85136 12.4538 9.6139 12.189 10.5247 12.0301C11.2661 11.903 12.018 11.8713 12.7912 11.9454C13.5537 12.0195 14.2951 12.2102 14.9941 12.5067L13.8714 14.7626C13.2678 14.5402 12.6958 14.4025 12.1769 14.3389C11.6474 14.2754 11.139 14.2966 10.6412 14.3813C10.2494 14.4554 9.93163 14.5719 9.71981 14.752C9.4974 14.932 9.41267 15.1227 9.44445 15.3451C9.47622 15.5463 9.60331 15.6946 9.80454 15.7899C10.0058 15.8746 10.3341 15.917 10.7789 15.9064L12.8547 15.8534C13.882 15.8217 14.7081 16.0123 15.3436 16.4359C15.979 16.8596 16.3709 17.4632 16.5086 18.2576C16.6251 18.9248 16.5298 19.5497 16.2226 20.1322C15.9155 20.7147 15.4495 21.2124 14.814 21.6361C14.1786 22.0597 13.4266 22.3456 12.537 22.5045L12.5052 22.4939Z" fill="#407AFF"/>
<path fill-rule="evenodd" clip-rule="evenodd" d="M32.7656 3.07014L35.9853 2.69946L35.1168 7.23237L33.9518 7.00996L32.7656 3.07014Z" fill="#407AFF"/>
<path fill-rule="evenodd" clip-rule="evenodd" d="M40.942 3.3667L37.1716 1.33325L36.0278 7.3277L37.5635 7.61365L40.942 3.3667Z" fill="#407AFF"/>
</svg>
