<svg width="32" height="32" viewBox="0 0 32 32" fill="none" xmlns="http://www.w3.org/2000/svg">
<rect width="32" height="32" rx="16" fill="#407AFF"/>
<path d="M15.806 25.3924C14.6494 25.5958 13.5565 25.6466 12.527 25.5576C11.4976 25.456 10.5698 25.2145 9.75645 24.8205L11.0909 21.9991C11.9424 22.3295 12.705 22.5329 13.3658 22.6345C14.0267 22.7362 14.6749 22.7235 15.2849 22.6218C15.8949 22.5075 16.3779 22.3422 16.7083 22.1008C17.0387 21.8593 17.1785 21.5924 17.1277 21.3001C17.0896 21.0713 16.9498 20.8934 16.7337 20.7917C16.505 20.6773 16.1745 20.6265 15.7297 20.6519L13.2387 20.7155C11.9932 20.7409 10.9892 20.4994 10.2521 19.9911C9.50227 19.4827 9.04474 18.7329 8.86681 17.7288C8.72701 16.9028 8.80327 16.1529 9.12099 15.4793C9.43872 14.8185 9.95979 14.2593 10.6969 13.8017C11.4213 13.3442 12.3364 13.0265 13.4294 12.8359C14.319 12.6833 15.2213 12.6452 16.1491 12.7342C17.0642 12.8231 17.9538 13.0519 18.7926 13.4078L17.4454 16.1148C16.721 15.8479 16.0347 15.6827 15.412 15.6064C14.7765 15.5302 14.1665 15.5556 13.5692 15.6573C13.0989 15.7462 12.7177 15.886 12.4635 16.1021C12.1966 16.3181 12.0949 16.5469 12.133 16.8138C12.1712 17.0553 12.3237 17.2332 12.5652 17.3476C12.8066 17.4492 13.2006 17.5001 13.7344 17.4874L16.2254 17.4238C17.4581 17.3857 18.4494 17.6145 19.212 18.1228C19.9745 18.6312 20.4448 19.3556 20.61 20.3088C20.7498 21.1095 20.6354 21.8593 20.2668 22.5583C19.8983 23.2573 19.3391 23.8546 18.5765 24.363C17.814 24.8713 16.9117 25.2145 15.8441 25.4051L15.806 25.3924Z" fill="white"/>
<path fill-rule="evenodd" clip-rule="evenodd" d="M12.7998 6.88408L16.6634 6.43926L15.6212 11.8787L14.2232 11.6118L12.7998 6.88408Z" fill="white"/>
<path fill-rule="evenodd" clip-rule="evenodd" d="M22.6109 7.23995L18.0864 4.7998L16.7139 11.9931L18.5567 12.3363L22.6109 7.23995Z" fill="white"/>
</svg>
