<svg width="203" height="189" fill="none" xmlns="http://www.w3.org/2000/svg"><path d="M11 84V20.7h27.5c4.9 0 9 .6 12.2 2a16 16 0 0 1 7.5 5.4 14 14 0 0 1 2.5 8.4 13.2 13.2 0 0 1-5.8 11.2 17 17 0 0 1-6.5 2.7v.6c2.8 0 5.2.8 7.5 2a14.2 14.2 0 0 1 7.3 13c0 3.5-1 6.6-2.8 9.3a18.1 18.1 0 0 1-7.6 6.4 28 28 0 0 1-12 2.3H11.2Zm17.3-13.7h8c2.9 0 5-.6 6.5-1.6 1.5-1.1 2.2-2.7 2.2-4.9 0-1.4-.4-2.7-1-3.7-.7-1-1.7-1.9-3-2.4-1.2-.5-2.7-.8-4.4-.8h-8.3v13.4Zm0-24h7c1.5 0 2.9-.3 4-.7a5.5 5.5 0 0 0 3.7-5.4c0-2-.7-3.4-2.1-4.5a8.6 8.6 0 0 0-5.3-1.6h-7.3v12.2Zm39.2-11.8V20.7h55v13.8h-19V84h-17V34.5h-19Zm117.7 10h-17.4c-.2-1.5-.5-2.8-1-4a9 9 0 0 0-5.5-5c-1.3-.5-2.8-.7-4.4-.7-3 0-5.4.7-7.4 2A13 13 0 0 0 145 43c-1 2.6-1.5 5.8-1.5 9.4 0 4 .5 7.2 1.6 9.8 1 2.6 2.5 4.5 4.5 5.8a14.3 14.3 0 0 0 11.4 1.4 9.1 9.1 0 0 0 5.5-4.5c.6-1.1 1-2.3 1.3-3.7l17.4.1a26.6 26.6 0 0 1-16.6 21.5 32.3 32.3 0 0 1-12.2 2.2c-5.8 0-11-1.3-15.7-3.8a27.1 27.1 0 0 1-10.9-11c-2.7-4.8-4-10.8-4-17.8s1.4-13 4.1-17.8c2.7-4.8 6.4-8.5 11-11a35.5 35.5 0 0 1 26.5-2.1c3.4 1.1 6.3 2.7 8.9 4.8 2.5 2.1 4.5 4.7 6 7.7 1.6 3 2.6 6.6 2.9 10.5ZM9.9 128v-26.4h9.4c2 0 3.7.4 5.1 1a7 7 0 0 1 3 3c.7 1.2 1 2.7 1 4.3 0 1.6-.3 3-1 4.2a6.9 6.9 0 0 1-3 2.9c-1.4.7-3 1-5.1 1h-7.1v-3.4h6.7c1.3 0 2.4-.2 3.2-.6.8-.3 1.4-.9 1.8-1.6.3-.7.5-1.5.5-2.5s-.2-1.9-.5-2.6c-.4-.7-1-1.3-1.8-1.7-.8-.4-2-.6-3.2-.6h-5v23h-4Zm13-12 6.5 12H25l-6.4-12H23Zm18.2 12.4a8.6 8.6 0 0 1-8-4.8c-.9-1.6-1.3-3.4-1.3-5.4 0-2 .4-3.9 1.2-5.4a8.6 8.6 0 0 1 8-4.8 8.6 8.6 0 0 1 8 4.9 12 12 0 0 1 1.3 5.3c0 2-.4 3.8-1.2 5.4a8.6 8.6 0 0 1-8 4.8Zm0-3.2c1.2 0 2.2-.4 3-1 .8-.6 1.3-1.5 1.7-2.5.4-1 .6-2.2.6-3.5a10 10 0 0 0-.6-3.5c-.4-1-1-2-1.7-2.6-.8-.6-1.8-1-3-1s-2.2.4-3 1c-.8.7-1.4 1.5-1.8 2.6-.4 1-.6 2.2-.6 3.5 0 1.3.2 2.4.6 3.5.4 1 1 1.9 1.8 2.5.8.6 1.8 1 3 1Zm26-5.4v-11.6H71V128h-3.8v-3.4H67c-.5 1-1.2 2-2.2 2.6-1 .7-2.2 1-3.7 1-1.3 0-2.4-.2-3.4-.8-1-.5-1.7-1.4-2.3-2.5a9.2 9.2 0 0 1-.8-4.1v-12.6h3.8v12.1c0 1.4.4 2.5 1.2 3.3.7.8 1.7 1.2 2.9 1.2a4.7 4.7 0 0 0 4-2.2c.4-.8.6-1.7.6-2.8Zm13-18.2V128h-4v-26.4h4Zm13.6 26.8c-2 0-3.6-.4-5-1.3-1.4-.8-2.5-2-3.2-3.5a12 12 0 0 1-1.2-5.4c0-2 .4-3.8 1.2-5.3a8.8 8.8 0 0 1 3.1-3.6c1.4-1 3-1.3 4.9-1.3 1 0 2.2.1 3.2.5a7.9 7.9 0 0 1 4.8 4.8c.5 1.3.7 2.8.7 4.6v1.4H86.5v-3h12c0-1-.3-1.8-.7-2.6a4.7 4.7 0 0 0-4.3-2.6c-1 0-2 .3-2.8.8-.8.6-1.5 1.2-1.9 2a6 6 0 0 0-.6 2.8v2.3c0 1.3.2 2.4.7 3.4a5 5 0 0 0 2 2c.8.6 1.8.8 2.9.8.7 0 1.4 0 2-.3.6-.2 1.1-.5 1.5-1 .5-.4.8-.9 1-1.5l3.7.7c-.3 1-.8 2-1.6 2.8-.7.8-1.7 1.4-2.8 1.8-1.1.5-2.4.7-3.9.7Zm22-20.2v3.1H105v-3h10.8Zm-7.9-4.7h3.9v18.7c0 .7.1 1.3.3 1.7.2.3.5.6.9.7.3.2.7.2 1.2.2h.8l.5-.1.7 3.1-1 .3a7.5 7.5 0 0 1-4.3-.4c-1-.4-1.6-1-2.2-1.7-.5-.8-.8-1.8-.8-3v-19.5Zm21.4 4.7v3.1h-10.8v-3h10.8Zm-7.9-4.7h3.9v18.7c0 .7.1 1.3.3 1.7.2.3.5.6.9.7.3.2.7.2 1.2.2h.8l.5-.1.7 3.1-1 .3a7.5 7.5 0 0 1-4.3-.4c-.9-.4-1.6-1-2.2-1.7-.5-.8-.8-1.8-.8-3v-19.5Zm20.5 24.9c-2 0-3.6-.4-5-1.3-1.4-.8-2.5-2-3.3-3.5a12 12 0 0 1-1-5.4c0-2 .3-3.8 1-5.3a8.8 8.8 0 0 1 3.2-3.6c1.4-1 3-1.3 4.9-1.3 1 0 2.2.1 3.2.5a7.9 7.9 0 0 1 4.8 4.8c.5 1.3.7 2.8.7 4.6v1.4h-15.7v-3h12c0-1-.3-1.8-.7-2.6a4.7 4.7 0 0 0-4.3-2.6c-1.1 0-2 .3-2.9.8-.8.6-1.4 1.2-1.8 2a6 6 0 0 0-.7 2.8v2.3c0 1.3.3 2.4.7 3.4a5 5 0 0 0 2 2c.9.6 1.8.8 3 .8.7 0 1.4 0 2-.3.6-.2 1-.5 1.5-1 .5-.4.8-.9 1-1.5l3.7.7c-.3 1-.8 2-1.6 2.8-.7.8-1.7 1.4-2.8 1.8-1.1.5-2.4.7-3.9.7Zm22.3-.4v-2.9l9-9.2a49.8 49.8 0 0 0 3.7-4.9c.3-.6.5-1.4.5-2.1a4 4 0 0 0-.6-2.3 4 4 0 0 0-1.7-1.5c-.7-.3-1.5-.5-2.4-.5a5 5 0 0 0-2.5.6 4 4 0 0 0-1.6 1.6c-.4.7-.6 1.5-.6 2.5h-3.8a7.5 7.5 0 0 1 4.1-7c1.4-.7 2.8-1 4.5-1 1.6 0 3 .3 4.3 1a7 7 0 0 1 4 6.5c0 1-.1 1.9-.5 2.8-.3 1-1 2-1.9 3.1-.9 1.2-2.1 2.6-3.7 4.2l-5.3 5.5v.2h12v3.4H164Z" fill="#fff"/><g filter="url(#a)"><path d="M17.4 158.1c1.2-4 4.9-6.6 9-6.6h163c6.4 0 11 6.3 9 12.4l-5.8 18c-1.2 4-4.9 6.6-9 6.6h-163c-6.4 0-11-6.3-9-12.4l5.8-18Z" stroke="#1A4CFF" stroke-opacity=".2"/></g><g filter="url(#b)"><path d="M9.9 152a10 10 0 0 1 9.5-7h163a10 10 0 0 1 9.4 13l-5.7 18a10 10 0 0 1-9.5 7h-163a10 10 0 0 1-9.5-13l5.8-18Z" fill="#090F38"/></g><path d="M10.4 152.1c1.2-4 4.9-6.6 9-6.6h163c6.4 0 11 6.3 9 12.4l-5.8 18c-1.2 4-4.9 6.6-9 6.6h-163c-6.4 0-11-6.3-9-12.4l5.8-18Z" stroke="url(#c)"/><path d="M10.4 152.1c1.2-4 4.9-6.6 9-6.6h163c6.4 0 11 6.3 9 12.4l-5.8 18c-1.2 4-4.9 6.6-9 6.6h-163c-6.4 0-11-6.3-9-12.4l5.8-18Z" stroke="#1A4CFF" stroke-opacity=".2"/><path d="M43.4 172v-17.5h11v2.3H46v5.3h7.8v2.3H46v5.3h8.5v2.3h-11Zm16.3-17.5 4.2 6.9h.1l4.2-6.9h3l-5.4 8.8 5.5 8.7h-3l-4.3-6.7H64l-4.2 6.7h-3l5.5-8.7-5.5-8.8h3Zm13.3 2.3v-2.3h13.5v2.3h-5.4V172h-2.7v-15.2H73ZM89.5 172v-17.5h6.2c1.4 0 2.5.3 3.4.7.9.5 1.5 1.2 2 2 .4.8.7 1.7.7 2.8 0 1-.3 2-.7 2.8-.5.8-1.1 1.5-2 2-1 .4-2 .6-3.4.6H91V163h4.5a5 5 0 0 0 2-.3c.6-.3 1-.6 1.2-1.1.3-.5.4-1 .4-1.7 0-.6-.1-1.2-.4-1.7-.2-.5-.6-.8-1.2-1.1-.5-.3-1.2-.4-2-.4H92V172h-2.6Zm8.6-7.9 4.3 7.9h-3l-4.2-7.9h3Zm6.9 7.9v-17.5h10.9v2.3h-8.3v5.3h7.7v2.3h-7.7v5.3h8.4v2.3h-11Zm14.4-17.5h3.2l5.6 13.6h.2l5.5-13.6h3.2V172h-2.5v-12.6h-.1l-5.2 12.6h-2l-5.2-12.6h-.2V172h-2.5v-17.5ZM141 172v-17.5h10.9v2.3h-8.3v5.3h7.7v2.3h-7.7v5.3h8.4v2.3h-11Z" fill="#fff"/><defs><filter id="a" x="10.7" y="151" width="188.7" height="46" filterUnits="userSpaceOnUse" color-interpolation-filters="sRGB"><feFlood flood-opacity="0" result="BackgroundImageFix"/><feBlend in="SourceGraphic" in2="BackgroundImageFix" result="shape"/><feColorMatrix in="SourceAlpha" values="0 0 0 0 0 0 0 0 0 0 0 0 0 0 0 0 0 0 127 0" result="hardAlpha"/><feOffset dy="8"/><feGaussianBlur stdDeviation="10"/><feComposite in2="hardAlpha" operator="arithmetic" k2="-1" k3="1"/><feColorMatrix values="0 0 0 0 1 0 0 0 0 1 0 0 0 0 1 0 0 0 0.1 0"/><feBlend in2="shape" result="effect1_innerShadow_578_6413"/></filter><filter id="b" x="3.7" y="145" width="188.7" height="46" filterUnits="userSpaceOnUse" color-interpolation-filters="sRGB"><feFlood flood-opacity="0" result="BackgroundImageFix"/><feBlend in="SourceGraphic" in2="BackgroundImageFix" result="shape"/><feColorMatrix in="SourceAlpha" values="0 0 0 0 0 0 0 0 0 0 0 0 0 0 0 0 0 0 127 0" result="hardAlpha"/><feOffset dy="8"/><feGaussianBlur stdDeviation="10"/><feComposite in2="hardAlpha" operator="arithmetic" k2="-1" k3="1"/><feColorMatrix values="0 0 0 0 1 0 0 0 0 1 0 0 0 0 1 0 0 0 0.1 0"/><feBlend in2="shape" result="effect1_innerShadow_578_6413"/></filter><linearGradient id="c" x1="0" y1="145" x2="27" y2="234.1" gradientUnits="userSpaceOnUse"><stop stop-color="#5B88E2" stop-opacity=".1"/><stop offset=".5" stop-color="#5B88E2" stop-opacity=".5"/><stop offset="1" stop-color="#5B88E2" stop-opacity=".1"/></linearGradient></defs></svg>