<svg width="101" height="31" fill="none" xmlns="http://www.w3.org/2000/svg"><g clip-path="url(#a)"><path d="M40.3 0h-30c-.6 0-1.1.2-1.6.6-.4.3-.7.8-.9 1.3L4 19.7a1.5 1.5 0 0 0 .3 1.4 1.6 1.6 0 0 0 1.4.5H37c2 0 4-.7 5.5-2 1.5-1.2 2.6-2.9 3.1-4.8l.3-1.3.2-1.1 1-4.2C48 3.7 45 0 40.2 0Z" fill="#fff"/><path d="M43.2 5a4.8 4.8 0 0 0-2-1.4C40 3.2 38.8 3 37.7 3H19.9a1.2 1.2 0 0 0-1 .4l-5 5L15 3.6a.5.5 0 0 0-.2-.6H11.5c-.2 0-.3 0-.5.2l-.2.4L7.6 18a.5.5 0 0 0 0 .4.5.5 0 0 0 .5.2h3c.2 0 .4 0 .5-.2l.3-.4 1.2-5.4 3.2 5.5.4.4h4.2a.5.5 0 0 0 .2-.4v-.3l-4.2-7.1L20.5 7h.1c.3-.3.8-.4 1.2-.4h2l-2.4 11.5a.5.5 0 0 0 0 .4.5.5 0 0 0 .4.2H25a.7.7 0 0 0 .7-.6l2.6-11.5h2c-.5.7-.8 1.5-1 2.2a68.5 68.5 0 0 0-1 5.5 4 4 0 0 0 1.6 3.4 7 7 0 0 0 4.3 1.2c1.4 0 2.8-.2 4-.7a7.8 7.8 0 0 0 3-2 7 7 0 0 0 1.6-3.3l.6-2.6a.5.5 0 0 0 0-.4.4.4 0 0 0-.5-.2h-5.7c-.2 0-.3 0-.5.2l-.2.4L36 12a.4.4 0 0 0 0 .4.4.4 0 0 0 .5.2h2l-.2.4a3 3 0 0 1-1.2 2c-.6.4-1.4.6-2.2.6-1.5 0-2.2-.7-2.2-2v-.8l.9-3.9c.4-1.7 1.6-2.6 3.3-2.6.6 0 1.1.1 1.6.4.3.3.5.7.6 1.1l.2.2.4.1h3.5l.4-.1a.5.5 0 0 0 .2-.4v-.5c0-.8-.3-1.5-.7-2" fill="#C61E5A"/><path d="M50.8 18.4c-.7-.3-1.3-.7-1.7-1.3-.4-.5-.6-1.2-.6-1.8v-.4l.1-.4a.5.5 0 0 1 .4 0h.5c.3 0 .5 0 .5.4s0 .9.3 1.2c.3.5.7.9 1.2 1a6.8 6.8 0 0 0 5.7-.4 3.3 3.3 0 0 0 1.6-2V14a1.5 1.5 0 0 0-.4-1.1c-.4-.4-.8-.7-1.3-.9l-2.6-.9c-1-.3-2-.8-2.9-1.5a2.7 2.7 0 0 1-.9-2l.1-1.1c.3-1.2 1-2.2 2-2.8a7 7 0 0 1 4-1c1-.1 1.8 0 2.6.4.7.3 1.2.8 1.6 1.3.4.5.6 1 .6 1.7v.4c-.1.4-.3.5-.6.5h-.5l-.3-.1a.4.4 0 0 1-.1-.4 2 2 0 0 0-.8-1.8c-.7-.5-1.6-.7-2.5-.7-1 0-2.1.2-3 .7a3 3 0 0 0-1.6 2v.6c-.1.4 0 .8.3 1.1.4.4.8.6 1.3.8l2.3 1c1.2.3 2.2.8 3.2 1.5a2.6 2.6 0 0 1 1 2l-.1 1a4.5 4.5 0 0 1-2.2 3 8.2 8.2 0 0 1-4.3 1.1c-1 0-2-.1-2.9-.5M63 17.8a4.2 4.2 0 0 1-1.3-3.4c0-.6 0-1.1.2-1.7l.8-3.8a8.3 8.3 0 0 1 2.6-4.6A7 7 0 0 1 70 2.8c1.3-.1 2.6.3 3.7 1.1A4.3 4.3 0 0 1 75 7.3c0 .6 0 1.1-.2 1.6l-.8 3.8a8.4 8.4 0 0 1-2.6 4.7 7 7 0 0 1-4.7 1.5c-1.3 0-2.6-.3-3.7-1.1Zm7.4-1.4c1.2-1 2-2.3 2.2-3.8a54.2 54.2 0 0 0 1-5.2 3.1 3.1 0 0 0-1-2.5 4 4 0 0 0-2.6-.8c-1.4 0-2.7.4-3.7 1.2A6.7 6.7 0 0 0 64 9.1a54 54 0 0 0-1 5.2 3.2 3.2 0 0 0 1 2.5 4 4 0 0 0 2.6.8c1.4 0 2.7-.4 3.7-1.3M74.5 18.5a.4.4 0 0 1-.1-.3l3.2-14.7.2-.4.4-.2h8.9a.5.5 0 0 1 .3.2.4.4 0 0 1 .1.4v.3l-.3.4s-.2.1-.4 0H79l-1.3 6.1H85a.4.4 0 0 1 .3.2.4.4 0 0 1 0 .3v.4l-.2.3-.4.2h-7.5l-1.5 6.5s0 .2-.2.3l-.4.1h-.4a.4.4 0 0 1-.4 0M90.4 18.5a.4.4 0 0 1-.1-.3l3-13.8h-4.5a.4.4 0 0 1-.4-.2.4.4 0 0 1 0-.3v-.4l.2-.3.4-.2h10.6a.5.5 0 0 1 .3.1.4.4 0 0 1 0 .4V4c0 .1 0 .2-.2.3l-.4.2h-4.5l-3 13.8a.6.6 0 0 1-.7.5h-.4a.4.4 0 0 1-.4-.1M3 30.6c-.3 0-.5-.3-.7-.5l-.2-.6V29.2H2.8a.2.2 0 0 1 .1 0 .2.2 0 0 1 .1.1.7.7 0 0 0 .3.6l.9.3c.4 0 .8-.1 1.1-.3a1 1 0 0 0 .5-.6V29a.5.5 0 0 0-.1-.4l-.5-.2-.8-.3a3 3 0 0 1-1.1-.6 1 1 0 0 1-.4-.7v-.4c.1-.5.4-.8.8-1C4 25 4.6 25 5 25c.3 0 .7 0 1 .2l.6.5.2.6v.2c0 .1 0 .2-.2.2h-.5v-.2a.6.6 0 0 0-.3-.5c-.3-.2-.5-.3-.8-.3a2 2 0 0 0-1 .3 1 1 0 0 0-.5.6v.2a.5.5 0 0 0 .3.5l1 .4c.5 0 .9.3 1.2.5a1 1 0 0 1 .4.8v.3a1.7 1.7 0 0 1-.8 1.2 3 3 0 0 1-1.6.4 3 3 0 0 1-1.1-.2M7.4 30.7a.1.1 0 0 1 0-.2l1.1-5.2V25h.8v.1l1 3.3 2.5-3.3a.3.3 0 0 1 .2-.1h.4a.2.2 0 0 1 .2 0 .1.1 0 0 1 0 .2l-1.2 5.3a.2.2 0 0 1-.2.1h-.4a.2.2 0 0 1-.1 0 .1.1 0 0 1 0-.1l.8-4-1.9 2.6a.4.4 0 0 1-.3.2h-.4v-.2l-1-2.7-.8 4v.2H7.4a.1.1 0 0 1-.1 0M13.4 30.7a.1.1 0 0 1 0-.1v-.1l3.1-5.3h.2l.1-.1h.6a.2.2 0 0 1 .2 0 .2.2 0 0 1 0 .1l1 5.3v.2H18l-.2-.2-.2-1H15l-.8 1v.2H13.3Zm1.8-2h2.3l-.5-2.9-1.8 3ZM19.6 30.7v-.2l1.1-5.2a.2.2 0 0 1 .1-.2.2.2 0 0 1 .2 0h2c.4 0 .8 0 1.2.3a1 1 0 0 1 .4 1v.4c0 .3-.2.7-.5 1a2 2 0 0 1-1 .5l.8 2.2v.2H23.2a.2.2 0 0 1-.1 0l-.1-.2-.9-2h-1.4l-.5 2v.2H19.5Zm2.7-3c.4.1.7 0 1-.2l.5-.8v-.3c0-.5-.4-.7-1-.7h-1.4l-.5 2h1.4ZM26 30.7v-.2l1-4.7h-1.6a.1.1 0 0 1-.1 0 .2.2 0 0 1 0-.2v-.3l.1-.1a.2.2 0 0 1 .2 0h4a.2.2 0 0 1 .1 0 .2.2 0 0 1 0 .1v.3a.2.2 0 0 1-.2.2H27.8l-1 4.7-.1.2a.2.2 0 0 1-.2 0h-.4a.2.2 0 0 1-.1 0ZM31.4 30.7a.1.1 0 0 1 0-.2l1-5.2.2-.2H36a.1.1 0 0 1 .1 0 .2.2 0 0 1 0 .2v.3a.2.2 0 0 1-.1 0c0 .1-.1.1-.2 0h-2.8l-.4 1.9h2.7a.2.2 0 0 1 .1 0v.5a.2.2 0 0 1-.1 0 .2.2 0 0 1-.2.1h-2.6l-.4 2h3a.2.2 0 0 1 0 .1v.5a.2.2 0 0 1-.2 0h-3.5a.1.1 0 0 1-.1 0ZM36.3 30.7a.1.1 0 0 1 0-.2l1.2-5.2V25H38.3l2 4.3.8-4.1.1-.2a.2.2 0 0 1 .2 0h.3a.1.1 0 0 1 .2 0 .2.2 0 0 1 0 .2l-1.2 5.2a.2.2 0 0 1 0 .2H40l-.2-.1-1.8-4.2-1 4.1v.2h-.5a.2.2 0 0 1-.2 0M43.3 30.7a.1.1 0 0 1 0-.2l1-4.7h-1.6c-.1 0-.1-.1 0-.2v-.4H47a.1.1 0 0 1 .1 0 .2.2 0 0 1 0 .1v.3l-.1.2H45l-1 4.7v.2H43.5a.1.1 0 0 1-.1 0M46.8 30.7v-.2l1.2-5.2V25h3.7a.2.2 0 0 1 0 .2v.3a.2.2 0 0 1-.1 0c0 .1-.1.1-.2 0h-2.8l-.4 2H51a.2.2 0 0 1 0 .1v.3l-.2.1a.2.2 0 0 1-.1 0H48l-.4 2h2.8a.1.1 0 0 1 .2 0 .2.2 0 0 1 0 .1v.3l-.2.2H47ZM52 30.7a.1.1 0 0 1 0-.2l1-5.2.1-.2h2.2c.4 0 .9 0 1.2.3a1 1 0 0 1 .5 1v.4c-.2.3-.3.7-.6 1a2 2 0 0 1-1 .5l.8 2.2v.2H55.5a.2.2 0 0 1-.2 0v-.2l-.8-2H53l-.4 2-.1.2H52Zm2.7-3c.3.1.7 0 1-.1.2-.2.4-.5.5-.9v-.2c0-.5-.4-.8-1-.8h-1.5l-.4 2h1.4ZM58.3 30.7a.1.1 0 0 1 0-.2l1-4.7h-1.5a.1.1 0 0 1-.1 0v-.5l.1-.1H62a.2.2 0 0 1 0 .1v.5h-1.8l-1 4.7-.1.2h-.5a.1.1 0 0 1-.2 0M60.6 30.7a.1.1 0 0 1 0-.1v-.1l3.2-5.3a.3.3 0 0 1 .3-.1h.6a.2.2 0 0 1 .2 0 .2.2 0 0 1 0 .1l1 5.3v.1l-.1.1h-.6v-.2l-.3-1h-2.7l-.8 1v.2H60.7Zm2-2h2.2l-.5-2.9-1.7 3ZM66.7 30.7a.1.1 0 0 1 0-.2l1.2-5.2a.2.2 0 0 1 0-.2.2.2 0 0 1 .2 0h.4a.2.2 0 0 1 .1 0 .1.1 0 0 1 0 .2l-1.1 5.2-.1.2h-.6M69 30.7v-.2l1.1-5.2V25H70.9l2 4.3.8-4.1a.3.3 0 0 1 .2-.2h.4a.2.2 0 0 1 .2 0v.2l-1.2 5.2v.2H72.5l-.1-.1-2-4.2-.8 4.1-.1.2h-.5a.2.2 0 0 1-.2 0M74.7 30.7a.1.1 0 0 1 0-.2l1.2-5.2V25a.2.2 0 0 1 .2 0h.6l1 3.3 2.5-3.2a.2.2 0 0 1 .2-.2h.4a.1.1 0 0 1 .1 0 .2.2 0 0 1 0 .2l-1.1 5.3-.1.1h-.5a.2.2 0 0 1-.2 0 .1.1 0 0 1 0-.1l.9-3.9-2 2.6a.4.4 0 0 1-.2.1h-.4l-.1-.1-.9-2.8-.9 4.1v.1H74.8M81.3 30.7a.1.1 0 0 1 0-.2l1.1-5.2.1-.2h3.6a.2.2 0 0 1 0 .2v.3a.2.2 0 0 1-.1 0c0 .1-.1.1-.2 0h-2.7l-.4 1.9h2.7a.2.2 0 0 1 .1 0 .2.2 0 0 1 0 .2v.3h-.1l-.2.1h-2.7l-.4 2h3a.1.1 0 0 1 0 .1v.3a.2.2 0 0 1 0 .2.2.2 0 0 1-.2 0h-3.5a.2.2 0 0 1-.1 0ZM86.3 30.7a.1.1 0 0 1 0-.2l1.1-5.2.1-.2h.6l2 4.3.9-4.1V25a.2.2 0 0 1 .2 0h.4a.1.1 0 0 1 .1 0 .2.2 0 0 1 0 .2l-1.2 5.2a.2.2 0 0 1 0 .2h-.6l-.1-.1-1.9-4.2-.9 4.1v.2H86.3a.2.2 0 0 1-.1 0M93.3 30.7a.1.1 0 0 1 0-.2l1-4.7h-1.6a.1.1 0 0 1-.1 0v-.5l.1-.1h4.2c.1 0 .1 0 0 .1v.5H95l-1 4.7v.2H93.4a.1.1 0 0 1-.1 0" fill="#fff"/></g><defs><clipPath id="a"><path fill="#fff" d="M0 0h99.9v31H0z"/></clipPath></defs></svg>