<svg width="62" height="39" viewBox="0 0 62 39" fill="none" xmlns="http://www.w3.org/2000/svg">
<path d="M0.435482 23V0.728282H10.0924C11.7888 0.728282 13.2134 0.956654 14.3662 1.4134C15.5262 1.87014 16.3998 2.51538 16.987 3.34912C17.5815 4.18286 17.8788 5.16523 17.8788 6.29621C17.8788 7.11545 17.6975 7.86219 17.335 8.53643C16.9798 9.21067 16.4795 9.77617 15.8343 10.2329C15.189 10.6824 14.4351 10.9942 13.5723 11.1681V11.3856C14.5293 11.4219 15.3993 11.6648 16.1823 12.1143C16.9653 12.5565 17.5888 13.1691 18.0528 13.9521C18.5168 14.7279 18.7487 15.6413 18.7487 16.6926C18.7487 17.9106 18.4298 18.9944 17.7918 19.9442C17.161 20.8939 16.262 21.6406 15.0948 22.1844C13.9276 22.7281 12.5356 23 10.9188 23H0.435482ZM6.48191 18.1716H9.30937C10.3244 18.1716 11.0856 17.9831 11.5931 17.6061C12.1006 17.2218 12.3543 16.6563 12.3543 15.9096C12.3543 15.3876 12.2347 14.9454 11.9955 14.5829C11.7562 14.2204 11.4155 13.9449 10.9732 13.7564C10.5382 13.5679 10.0126 13.4736 9.39637 13.4736H6.48191V18.1716ZM6.48191 9.73267H8.96137C9.49062 9.73267 9.95824 9.64929 10.3642 9.48255C10.7702 9.3158 11.0856 9.07655 11.3103 8.76481C11.5423 8.44581 11.6583 8.05794 11.6583 7.60119C11.6583 6.91245 11.4118 6.38684 10.9188 6.02434C10.4259 5.6546 9.80236 5.46972 9.04837 5.46972H6.48191V9.73267ZM20.2821 5.60022V0.728282H39.6394V5.60022H32.9404V23H26.981V5.60022H20.2821ZM61.661 9.08018H55.5275C55.484 8.57268 55.368 8.11231 55.1795 7.69907C54.9983 7.28582 54.7445 6.93058 54.4183 6.63333C54.0993 6.32884 53.7114 6.09684 53.2547 5.93734C52.7979 5.77059 52.2796 5.68722 51.6996 5.68722C50.6846 5.68722 49.8255 5.93372 49.1222 6.42671C48.4263 6.9197 47.897 7.62657 47.5345 8.54731C47.1793 9.46805 47.0016 10.5737 47.0016 11.8641C47.0016 13.2271 47.1829 14.369 47.5454 15.2897C47.9151 16.2032 48.448 16.892 49.144 17.3559C49.84 17.8127 50.6773 18.0411 51.6561 18.0411C52.2143 18.0411 52.7146 17.9722 53.1568 17.8344C53.5991 17.6894 53.9833 17.4828 54.3096 17.2146C54.6358 16.9463 54.9004 16.6237 55.1034 16.2467C55.3137 15.8625 55.455 15.4311 55.5275 14.9526L61.661 14.9961C61.5885 15.9386 61.3238 16.8992 60.8671 17.8779C60.4103 18.8494 59.7615 19.7484 58.9205 20.5749C58.0868 21.3941 57.0536 22.0539 55.8212 22.5541C54.5887 23.0544 53.1568 23.3045 51.5256 23.3045C49.4811 23.3045 47.6469 22.8659 46.0229 21.9886C44.4062 21.1114 43.1266 19.8209 42.1841 18.1172C41.2488 16.4135 40.7812 14.3291 40.7812 11.8641C40.7812 9.38467 41.2597 7.2967 42.2167 5.60022C43.1737 3.89649 44.4642 2.60963 46.0882 1.73964C47.7121 0.862405 49.5246 0.423786 51.5256 0.423786C52.9321 0.423786 54.2262 0.615908 55.4079 1.00015C56.5896 1.3844 57.6264 1.94627 58.5181 2.68576C59.4099 3.418 60.1276 4.32061 60.6713 5.3936C61.2151 6.46658 61.545 7.69544 61.661 9.08018ZM0.0195183 38V28.7201H3.32729C4.04624 28.7201 4.64284 28.844 5.11711 29.0917C5.5944 29.3394 5.95085 29.6822 6.18647 30.1203C6.42209 30.5553 6.5399 31.0582 6.5399 31.6291C6.5399 32.1971 6.42058 32.697 6.18194 33.129C5.94632 33.5579 5.58986 33.8917 5.11258 34.1304C4.63831 34.369 4.04171 34.4883 3.32276 34.4883H0.817008V33.283H3.19588C3.649 33.283 4.01754 33.2181 4.3015 33.0882C4.58847 32.9583 4.79842 32.7695 4.93133 32.5218C5.06425 32.2741 5.1307 31.9765 5.1307 31.6291C5.1307 31.2787 5.06274 30.9751 4.9268 30.7184C4.79388 30.4616 4.58394 30.2653 4.29696 30.1293C4.01301 29.9904 3.63994 29.9209 3.17776 29.9209H1.41966V38H0.0195183ZM4.60055 33.8132L6.89334 38H5.29836L3.05089 33.8132H4.60055ZM10.9793 38.1405C10.3268 38.1405 9.75743 37.9909 9.27108 37.6919C8.78473 37.3928 8.40713 36.9744 8.13828 36.4367C7.86943 35.899 7.73501 35.2707 7.73501 34.5518C7.73501 33.8298 7.86943 33.1984 8.13828 32.6577C8.40713 32.117 8.78473 31.6971 9.27108 31.3981C9.75743 31.099 10.3268 30.9495 10.9793 30.9495C11.6318 30.9495 12.2013 31.099 12.6876 31.3981C13.1739 31.6971 13.5515 32.117 13.8204 32.6577C14.0892 33.1984 14.2237 33.8298 14.2237 34.5518C14.2237 35.2707 14.0892 35.899 13.8204 36.4367C13.5515 36.9744 13.1739 37.3928 12.6876 37.6919C12.2013 37.9909 11.6318 38.1405 10.9793 38.1405ZM10.9839 37.0031C11.4068 37.0031 11.7572 36.8914 12.0351 36.6678C12.313 36.4443 12.5184 36.1467 12.6513 35.7752C12.7873 35.4036 12.8553 34.9943 12.8553 34.5472C12.8553 34.1032 12.7873 33.6954 12.6513 33.3238C12.5184 32.9492 12.313 32.6487 12.0351 32.4221C11.7572 32.1955 11.4068 32.0823 10.9839 32.0823C10.5579 32.0823 10.2045 32.1955 9.92357 32.4221C9.64566 32.6487 9.43873 32.9492 9.3028 33.3238C9.16988 33.6954 9.10343 34.1032 9.10343 34.5472C9.10343 34.9943 9.16988 35.4036 9.3028 35.7752C9.43873 36.1467 9.64566 36.4443 9.92357 36.6678C10.2045 36.8914 10.5579 37.0031 10.9839 37.0031ZM20.1448 35.1136V31.0401H21.5042V38H20.172V36.7947H20.0995C19.9394 37.1663 19.6826 37.4759 19.3292 37.7236C18.9788 37.9683 18.5423 38.0906 18.0197 38.0906C17.5726 38.0906 17.1769 37.9924 16.8325 37.7961C16.4912 37.5967 16.2223 37.3022 16.026 36.9125C15.8326 36.5228 15.736 36.041 15.736 35.4671V31.0401H17.0908V35.3039C17.0908 35.7782 17.2222 36.1558 17.485 36.4367C17.7478 36.7177 18.0892 36.8581 18.509 36.8581C18.7628 36.8581 19.015 36.7947 19.2658 36.6678C19.5195 36.541 19.7294 36.3491 19.8956 36.0924C20.0648 35.8356 20.1478 35.5094 20.1448 35.1136ZM24.6794 28.7201V38H23.3246V28.7201H24.6794ZM29.5017 38.1405C28.816 38.1405 28.2254 37.994 27.73 37.7009C27.2376 37.4049 26.857 36.9895 26.5882 36.4549C26.3223 35.9172 26.1894 35.2873 26.1894 34.5654C26.1894 33.8524 26.3223 33.2241 26.5882 32.6804C26.857 32.1366 27.2316 31.7122 27.7119 31.4071C28.1952 31.102 28.7601 30.9495 29.4066 30.9495C29.7993 30.9495 30.1799 31.0144 30.5484 31.1443C30.917 31.2742 31.2477 31.4781 31.5408 31.756C31.8338 32.0339 32.0649 32.3949 32.234 32.839C32.4032 33.28 32.4878 33.8162 32.4878 34.4475V34.9279H26.9552V33.9129H31.1601C31.1601 33.5564 31.0876 33.2407 30.9426 32.9658C30.7976 32.6879 30.5937 32.4689 30.3309 32.3088C30.0711 32.1487 29.766 32.0687 29.4156 32.0687C29.035 32.0687 28.7027 32.1623 28.4188 32.3496C28.1378 32.5339 27.9203 32.7755 27.7663 33.0746C27.6152 33.3706 27.5397 33.6923 27.5397 34.0397V34.8327C27.5397 35.2979 27.6213 35.6936 27.7844 36.0199C27.9505 36.3461 28.1816 36.5953 28.4777 36.7675C28.7737 36.9367 29.1196 37.0213 29.5153 37.0213C29.7721 37.0213 30.0062 36.985 30.2176 36.9125C30.4291 36.837 30.6119 36.7252 30.7659 36.5772C30.92 36.4292 31.0378 36.2464 31.1194 36.0289L32.4017 36.26C32.299 36.6376 32.1147 36.9684 31.8489 37.2524C31.5861 37.5333 31.2553 37.7523 30.8565 37.9094C30.4608 38.0634 30.0092 38.1405 29.5017 38.1405ZM37.2399 31.0401V32.1276H33.4382V31.0401H37.2399ZM34.4577 29.3726H35.8125V35.9564C35.8125 36.2192 35.8518 36.4171 35.9304 36.55C36.0089 36.6799 36.1101 36.769 36.2339 36.8174C36.3608 36.8627 36.4983 36.8853 36.6463 36.8853C36.755 36.8853 36.8502 36.8778 36.9317 36.8627C37.0133 36.8476 37.0767 36.8355 37.1221 36.8264L37.3667 37.9456C37.2882 37.9758 37.1764 38.006 37.0314 38.0362C36.8864 38.0695 36.7052 38.0876 36.4877 38.0906C36.1312 38.0967 35.7989 38.0332 35.4908 37.9003C35.1827 37.7674 34.9335 37.562 34.7432 37.2841C34.5529 37.0062 34.4577 36.6573 34.4577 36.2374V29.3726ZM41.9874 31.0401V32.1276H38.1857V31.0401H41.9874ZM39.2053 29.3726H40.5601V35.9564C40.5601 36.2192 40.5994 36.4171 40.6779 36.55C40.7564 36.6799 40.8576 36.769 40.9815 36.8174C41.1084 36.8627 41.2458 36.8853 41.3938 36.8853C41.5026 36.8853 41.5977 36.8778 41.6793 36.8627C41.7609 36.8476 41.8243 36.8355 41.8696 36.8264L42.1143 37.9456C42.0358 37.9758 41.924 38.006 41.779 38.0362C41.634 38.0695 41.4527 38.0876 41.2352 38.0906C40.8788 38.0967 40.5465 38.0332 40.2384 37.9003C39.9303 37.7674 39.681 37.562 39.4907 37.2841C39.3004 37.0062 39.2053 36.6573 39.2053 36.2374V29.3726ZM46.411 38.1405C45.7253 38.1405 45.1347 37.994 44.6393 37.7009C44.1469 37.4049 43.7663 36.9895 43.4974 36.4549C43.2316 35.9172 43.0987 35.2873 43.0987 34.5654C43.0987 33.8524 43.2316 33.2241 43.4974 32.6804C43.7663 32.1366 44.1409 31.7122 44.6212 31.4071C45.1045 31.102 45.6694 30.9495 46.3158 30.9495C46.7085 30.9495 47.0892 31.0144 47.4577 31.1443C47.8262 31.2742 48.157 31.4781 48.45 31.756C48.743 32.0339 48.9741 32.3949 49.1433 32.839C49.3125 33.28 49.3971 33.8162 49.3971 34.4475V34.9279H43.8645V33.9129H48.0694C48.0694 33.5564 47.9969 33.2407 47.8519 32.9658C47.7069 32.6879 47.503 32.4689 47.2402 32.3088C46.9804 32.1487 46.6753 32.0687 46.3249 32.0687C45.9443 32.0687 45.612 32.1623 45.328 32.3496C45.0471 32.5339 44.8296 32.7755 44.6755 33.0746C44.5245 33.3706 44.449 33.6923 44.449 34.0397V34.8327C44.449 35.2979 44.5306 35.6936 44.6937 36.0199C44.8598 36.3461 45.0909 36.5953 45.3869 36.7675C45.683 36.9367 46.0289 37.0213 46.4246 37.0213C46.6814 37.0213 46.9155 36.985 47.1269 36.9125C47.3384 36.837 47.5211 36.7252 47.6752 36.5772C47.8293 36.4292 47.9471 36.2464 48.0286 36.0289L49.311 36.26C49.2083 36.6376 49.024 36.9684 48.7582 37.2524C48.4953 37.5333 48.1646 37.7523 47.7658 37.9094C47.3701 38.0634 46.9185 38.1405 46.411 38.1405ZM54.259 38V36.985L57.3991 33.7316C57.7344 33.3782 58.0108 33.0686 58.2283 32.8027C58.4489 32.5339 58.6135 32.2786 58.7222 32.037C58.831 31.7953 58.8854 31.5385 58.8854 31.2666C58.8854 30.9585 58.8129 30.6927 58.6679 30.4692C58.5229 30.2426 58.325 30.0689 58.0743 29.9481C57.8236 29.8242 57.5411 29.7623 57.227 29.7623C56.8947 29.7623 56.6047 29.8303 56.357 29.9662C56.1093 30.1021 55.9189 30.294 55.786 30.5417C55.6531 30.7894 55.5867 31.0794 55.5867 31.4116H54.25C54.25 30.8468 54.3799 30.3529 54.6396 29.9299C54.8994 29.507 55.2559 29.1793 55.709 28.9467C56.1621 28.7111 56.6772 28.5932 57.2541 28.5932C57.8372 28.5932 58.3507 28.7095 58.7947 28.9421C59.2418 29.1717 59.5907 29.4859 59.8414 29.8846C60.0922 30.2804 60.2175 30.7274 60.2175 31.2259C60.2175 31.5702 60.1526 31.9071 60.0227 32.2363C59.8958 32.5656 59.6738 32.9326 59.3566 33.3374C59.0394 33.7392 58.5984 34.227 58.0335 34.801L56.1893 36.7313V36.7992H60.3671V38H54.259Z" fill="white"/>
</svg>
