<svg width="200" height="200" viewBox="0 0 200 200" fill="none" xmlns="http://www.w3.org/2000/svg">
<circle cx="100" cy="100" r="100" fill="#407AFF"/>
<path d="M149.215 99.629C150.3 99.4255 151.227 99.0184 151.996 98.4079C152.765 97.7747 153.33 97.0058 153.67 96.0786C154.031 95.1514 154.122 94.179 153.941 93.1388C153.76 92.0986 153.33 91.2166 152.675 90.4703C152.019 89.7241 151.227 89.1814 150.277 88.8648C149.328 88.5482 148.333 88.4803 147.27 88.6612C146.343 88.8195 145.529 89.1135 144.805 89.5432C144.081 89.9728 143.493 90.5156 142.973 91.194L144.307 98.7923C144.963 99.1994 145.732 99.4933 146.569 99.6516C147.405 99.8099 148.287 99.8099 149.192 99.6516L149.215 99.629ZM140.395 115.323L135.103 85.2465L141.662 84.0932L141.933 85.6988C143.425 84.1384 145.257 83.166 147.428 82.7816C149.509 82.4198 151.476 82.5781 153.308 83.2791C155.162 83.9801 156.722 85.0882 157.989 86.6034C159.278 88.1185 160.092 89.905 160.454 91.9855C160.816 94.066 160.657 96.0334 159.956 97.8877C159.255 99.7421 158.125 101.325 156.609 102.614C155.072 103.903 153.262 104.74 151.137 105.102C150.119 105.283 149.124 105.328 148.152 105.237C147.179 105.147 146.23 104.943 145.348 104.627L147.021 114.147L140.373 115.323H140.395ZM122.643 104.333C123.729 104.129 124.656 103.722 125.425 103.112C126.194 102.478 126.759 101.71 127.098 100.782C127.46 99.8552 127.55 98.8828 127.369 97.8425C127.189 96.8023 126.759 95.9203 126.126 95.1741C125.47 94.4278 124.678 93.8851 123.729 93.5685C122.779 93.2519 121.784 93.184 120.721 93.3649C119.794 93.5232 118.957 93.8172 118.256 94.2469C117.532 94.6766 116.922 95.2193 116.424 95.8977L117.759 103.496C118.414 103.903 119.183 104.197 120.02 104.355C120.857 104.514 121.739 104.514 122.643 104.355V104.333ZM113.824 120.027L108.532 89.9502L115.09 88.7969L115.361 90.4025C116.854 88.8421 118.686 87.8697 120.857 87.4853C122.937 87.1235 124.905 87.2818 126.736 87.9828C128.591 88.6838 130.151 89.7919 131.417 91.3071C132.706 92.8222 133.52 94.6087 133.882 96.6892C134.244 98.7697 134.086 100.737 133.385 102.591C132.684 104.446 131.553 106.029 130.038 107.318C128.5 108.607 126.691 109.421 124.565 109.805C123.548 109.986 122.553 110.031 121.58 109.941C120.608 109.851 119.681 109.647 118.776 109.33L120.45 118.851L113.801 120.027H113.824ZM93.1545 108.358C93.2675 109.036 93.6746 109.511 94.3304 109.805C95.0088 110.077 95.8681 110.122 96.931 109.941C97.7225 109.805 98.4461 109.579 99.1246 109.308C99.803 109.014 100.391 108.652 100.888 108.2L100.391 105.418C99.7351 105.373 99.0793 105.35 98.4009 105.396C97.7225 105.418 97.0441 105.509 96.3657 105.622C95.2123 105.825 94.353 106.164 93.7877 106.639C93.2223 107.114 92.9962 107.702 93.1318 108.381L93.1545 108.358ZM95.9134 114.939C94.3756 115.21 92.9736 115.165 91.6846 114.803C90.3956 114.441 89.3327 113.808 88.4734 112.926C87.614 112.021 87.0939 110.936 86.8452 109.624C86.4833 107.544 86.9808 105.803 88.3603 104.378C89.7398 102.976 91.8202 102.003 94.647 101.506C96.343 101.212 98.0165 101.122 99.6673 101.257L99.4864 100.194C99.2829 99.1089 98.808 98.34 98.0165 97.933C97.225 97.5259 96.1395 97.4355 94.7827 97.6842C93.9233 97.8425 93.0188 98.1365 92.0011 98.5888C91.0061 99.0411 89.8302 99.6969 88.5186 100.556L85.2848 96.1012C86.913 94.9931 88.5412 94.0886 90.1242 93.4102C91.7072 92.7317 93.3354 92.2342 95.0088 91.9403C98.0165 91.4201 100.481 91.7141 102.404 92.8674C104.326 93.9981 105.524 95.8751 105.977 98.4757L108.419 112.383L101.861 113.537L101.635 112.225C100.866 112.971 100.029 113.582 99.102 114.012C98.1748 114.441 97.1345 114.758 95.9586 114.961L95.9134 114.939Z" fill="white"/>
<path d="M63.8463 120.162L60.0245 98.453L66.6731 97.277L66.9444 98.7469C68.3691 97.2092 70.2008 96.2368 72.4396 95.8297C74.1357 95.5358 75.696 95.6262 77.1207 96.1463C78.5454 96.6665 79.744 97.5032 80.7164 98.6791C81.6888 99.855 82.3219 101.302 82.6159 103.044L84.9678 116.408L78.3193 117.584L76.1257 105.101C75.9222 103.903 75.3794 102.998 74.5427 102.41C73.706 101.822 72.6884 101.642 71.4898 101.845C70.6305 102.003 69.9295 102.275 69.3415 102.682C68.7535 103.089 68.2787 103.609 67.8942 104.242L70.4948 118.919L63.8463 120.095V120.162Z" fill="white"/>
<path d="M51.6122 122.763C49.5544 123.125 47.6096 123.215 45.7778 123.057C43.9461 122.876 42.2953 122.446 40.848 121.745L43.2224 116.725C44.7376 117.313 46.0944 117.675 47.2703 117.856C48.4463 118.037 49.5996 118.014 50.6851 117.833C51.7705 117.63 52.6299 117.336 53.2178 116.906C53.8058 116.476 54.0545 116.001 53.9641 115.481C53.8962 115.074 53.6475 114.758 53.2631 114.577C52.856 114.373 52.268 114.283 51.4765 114.328L47.0442 114.441C44.828 114.486 43.0415 114.057 41.7299 113.152C40.3957 112.247 39.5816 110.913 39.265 109.127C39.0162 107.657 39.1519 106.323 39.7173 105.124C40.2826 103.948 41.2098 102.953 42.5214 102.139C43.8104 101.325 45.4386 100.759 47.3834 100.42C48.9664 100.149 50.572 100.081 52.2228 100.239C53.851 100.398 55.434 100.805 56.9265 101.438L54.5294 106.255C53.2404 105.78 52.0193 105.486 50.9112 105.35C49.7805 105.214 48.695 105.26 47.6322 105.441C46.7954 105.599 46.117 105.848 45.6647 106.232C45.1899 106.617 45.0089 107.024 45.0768 107.498C45.1446 107.928 45.416 108.245 45.8457 108.448C46.2753 108.629 46.9764 108.72 47.9261 108.697L52.3585 108.584C54.552 108.516 56.3159 108.923 57.6728 109.828C59.0296 110.732 59.8663 112.021 60.1603 113.717C60.4091 115.142 60.2056 116.476 59.5497 117.72C58.8939 118.964 57.8989 120.027 56.5421 120.931C55.1852 121.836 53.5796 122.446 51.6801 122.786L51.6122 122.763Z" fill="white"/>
<path fill-rule="evenodd" clip-rule="evenodd" d="M94.8732 81.2888L101.748 80.4973L99.8935 90.1761L97.4059 89.7012L94.8732 81.2888Z" fill="white"/>
<path fill-rule="evenodd" clip-rule="evenodd" d="M112.331 81.9222L104.281 77.5803L101.838 90.3799L105.117 90.9904L112.331 81.9222Z" fill="white"/>
</svg>
