<svg width="248" height="242" viewBox="0 0 248 242" fill="none" xmlns="http://www.w3.org/2000/svg">
<rect width="248" height="241.666" rx="40" fill="url(#paint0_linear_401_30479)"/>
<g clip-path="url(#clip0_401_30479)">
<path fill-rule="evenodd" clip-rule="evenodd" d="M85.4802 109.872C85.2808 109.333 85.0705 108.724 84.8441 108.104C84.6177 107.484 84.4507 107.026 84.2728 106.589C84.2419 106.485 84.2514 106.373 84.2994 106.276C84.3475 106.178 84.4306 106.102 84.532 106.064C84.6335 106.025 84.7459 106.026 84.8468 106.066C84.9476 106.107 85.0295 106.184 85.0759 106.282C85.27 106.783 85.464 107.295 85.6527 107.807C85.8413 108.319 86.0678 108.966 86.2888 109.592C86.3259 109.699 86.319 109.816 86.2694 109.919C86.2199 110.021 86.1319 110.099 86.0247 110.136C85.9174 110.173 85.7998 110.166 85.6977 110.117C85.5956 110.067 85.5174 109.979 85.4802 109.872M79.8258 137.767C79.7876 136.093 79.0923 134.501 77.89 133.335C76.6878 132.169 75.0751 131.523 73.4004 131.536H73.2172C73.0339 131.536 72.8452 131.536 72.6458 131.579H72.5002C73.2279 136.047 73.9718 140.381 74.721 144.516C76.1725 144.128 77.4566 143.275 78.3759 142.087C79.2952 140.899 79.7989 139.442 79.8096 137.939L79.8258 137.767ZM106.777 102.573C106.988 107.01 107.505 113.392 108.19 119.618C108.497 122.415 108.837 125.186 109.203 127.73C110.109 134.112 111.095 139.05 111.931 139.476C111.978 139.5 112.022 139.531 112.06 139.567C114.356 141.896 116.658 144.284 118.976 146.693C122.41 150.262 125.886 153.873 129.487 157.431L131.061 155.857C131.143 155.783 131.25 155.743 131.361 155.745C131.472 155.748 131.577 155.793 131.655 155.872C131.734 155.95 131.779 156.055 131.782 156.166C131.784 156.277 131.744 156.384 131.67 156.466L130.101 158.035L131.18 159.113L134.543 155.755C134.624 155.674 134.734 155.629 134.848 155.629C134.962 155.629 135.071 155.674 135.152 155.755C135.193 155.794 135.225 155.842 135.247 155.894C135.269 155.946 135.28 156.002 135.28 156.059C135.28 156.116 135.269 156.172 135.247 156.224C135.225 156.277 135.193 156.324 135.152 156.364L131.805 159.711C132.247 160.137 132.689 160.563 133.136 160.983L134.716 159.409C134.754 159.362 134.801 159.324 134.855 159.297C134.909 159.269 134.969 159.254 135.029 159.251C135.089 159.248 135.15 159.258 135.206 159.28C135.262 159.302 135.314 159.335 135.356 159.378C135.399 159.421 135.432 159.472 135.453 159.529C135.475 159.586 135.484 159.646 135.48 159.706C135.477 159.767 135.461 159.826 135.433 159.879C135.405 159.933 135.367 159.981 135.319 160.018L133.762 161.576C134.674 162.431 135.594 163.283 136.521 164.131L136.796 163.813C136.996 163.598 137.201 163.387 137.422 163.182C138.185 162.467 139.052 161.871 139.993 161.414C140.931 160.964 141.933 160.66 142.963 160.514C143.019 160.506 143.076 160.509 143.131 160.523C143.186 160.537 143.237 160.562 143.282 160.596C143.328 160.63 143.365 160.673 143.394 160.722C143.422 160.77 143.441 160.825 143.448 160.881C143.462 160.993 143.431 161.107 143.363 161.198C143.295 161.288 143.194 161.349 143.081 161.366C141.179 161.638 139.408 162.49 138.009 163.808C137.815 163.991 137.621 164.185 137.438 164.39L137.163 164.713L137.885 165.36L138.122 165.085C138.292 164.896 138.472 164.716 138.661 164.546L138.839 164.385C140.461 162.935 142.587 162.179 144.76 162.28C146.933 162.38 148.98 163.33 150.461 164.924L150.617 165.096C151.498 166.096 152.14 167.282 152.496 168.566C152.851 169.85 152.911 171.197 152.671 172.508C154.201 169.895 155.075 166.951 155.221 163.926C155.407 159.817 153.988 155.797 151.264 152.714C149.108 150.208 145.335 146.753 142.1 143.815C140.985 142.791 139.944 141.826 139.033 140.98C136.979 142.083 134.76 142.849 132.462 143.249C128.15 144.101 123.622 144.106 121.596 143.691L121.407 143.653L121.31 143.486C120.48 142.074 119.639 139.088 118.9 135.287C118.061 130.784 117.449 126.242 117.068 121.677C116.787 118.443 116.636 115.106 116.566 112.023C116.48 108.055 116.566 104.476 116.642 101.862L116.674 101.129V101.091C116.729 100.291 117.083 99.5399 117.666 98.9888C117.666 98.9888 117.666 98.9888 117.666 98.9888H110.184L111.262 100.121C111.308 100.16 111.346 100.208 111.372 100.263C111.398 100.317 111.412 100.376 111.414 100.437C111.416 100.497 111.405 100.557 111.382 100.613C111.359 100.669 111.325 100.719 111.281 100.761C111.238 100.803 111.186 100.835 111.129 100.855C111.072 100.876 111.011 100.884 110.951 100.88C110.891 100.875 110.832 100.858 110.779 100.829C110.726 100.801 110.679 100.761 110.642 100.714L109.025 99.0104H108.977C108.516 99.0181 108.071 99.173 107.705 99.4524L110.718 102.622C110.798 102.703 110.844 102.812 110.844 102.926C110.844 103.041 110.798 103.15 110.718 103.231C110.678 103.272 110.631 103.304 110.579 103.326C110.526 103.348 110.47 103.359 110.413 103.359C110.357 103.359 110.3 103.348 110.248 103.326C110.196 103.304 110.148 103.272 110.109 103.231L107.128 100.094C107.036 100.228 106.962 100.373 106.907 100.525C106.809 100.784 106.758 101.057 106.756 101.334L108.497 103.161C108.57 103.245 108.608 103.354 108.603 103.465C108.598 103.576 108.549 103.681 108.469 103.757C108.388 103.834 108.281 103.876 108.17 103.876C108.058 103.875 107.952 103.831 107.872 103.754L106.777 102.573ZM111.861 98.0994H154.908C151.329 95.7762 147.723 94.2776 143.971 92.709L143.852 92.6605C139.847 90.9726 135.964 89.0094 132.231 86.7851C127.983 84.2624 124.846 81.9337 124.097 80.8557L124.059 80.791C124.027 80.7155 123.989 80.6454 123.957 80.57C123.791 80.6888 123.61 80.7832 123.417 80.8503C123.061 80.9799 122.673 80.995 122.307 80.8934C121.93 80.7853 121.585 80.5852 121.304 80.3112C120.725 79.7141 120.291 78.9909 120.038 78.1982L117.817 71.9616C117.426 70.8151 117.234 69.6099 117.251 68.3986C117.25 67.2795 117.42 66.1668 117.758 65.0997C117.437 64.6238 116.973 64.2626 116.433 64.0687C115.893 63.8748 115.305 63.8583 114.755 64.0216C113.511 64.3385 112.364 64.9589 111.419 65.8274C110.124 66.9656 109.03 68.3142 108.184 69.8162C105.198 74.991 103.872 83.1681 108.362 92.8977C109.731 91.9113 111.483 91.2806 113.262 90.6338C113.93 90.3912 114.604 90.1486 115.278 89.8791C115.381 89.8416 115.495 89.8453 115.595 89.8895C115.696 89.9337 115.775 90.0149 115.817 90.1163C115.853 90.2195 115.849 90.3325 115.805 90.4326C115.761 90.5327 115.68 90.6123 115.58 90.6553C114.922 90.9194 114.222 91.1944 113.532 91.4207C111.758 92.0622 110.006 92.6929 108.713 93.6685C108.925 94.0998 109.146 94.531 109.376 94.9622L111.871 93.5068C111.97 93.45 112.087 93.4345 112.197 93.4638C112.307 93.4931 112.401 93.5648 112.459 93.6631C112.488 93.7115 112.507 93.7652 112.515 93.821C112.523 93.8769 112.52 93.9338 112.506 93.9885C112.492 94.0432 112.468 94.0945 112.433 94.1395C112.399 94.1845 112.357 94.2223 112.308 94.2507L109.823 95.7007C109.958 95.8947 110.109 96.0996 110.281 96.3098L110.637 96.7356C112.211 96.1589 113.661 95.0269 115.127 93.8895C115.666 93.4529 116.254 93.0109 116.825 92.6012C116.871 92.568 116.923 92.5441 116.978 92.531C117.034 92.5178 117.091 92.5157 117.147 92.5247C117.203 92.5337 117.257 92.5537 117.305 92.5835C117.354 92.6132 117.396 92.6522 117.429 92.6983C117.462 92.7443 117.486 92.7964 117.499 92.8516C117.512 92.9069 117.514 92.9642 117.505 93.0202C117.496 93.0763 117.476 93.13 117.447 93.1784C117.417 93.2267 117.378 93.2687 117.332 93.302C116.76 93.7063 116.205 94.1375 115.655 94.5687C114.323 95.7091 112.843 96.6663 111.257 97.4148L111.861 98.0994ZM139.702 114.324C139.664 114.221 139.668 114.108 139.712 114.007C139.756 113.907 139.838 113.827 139.939 113.785C140.043 113.749 140.156 113.755 140.256 113.8C140.357 113.845 140.436 113.926 140.478 114.028C140.548 114.195 140.618 114.394 140.694 114.615C140.769 114.836 140.844 115.052 140.904 115.257C140.926 115.363 140.907 115.473 140.852 115.566C140.796 115.659 140.707 115.728 140.603 115.759C140.499 115.789 140.388 115.779 140.291 115.731C140.193 115.683 140.118 115.601 140.079 115.499C140.004 115.262 139.944 115.063 139.885 114.896C139.826 114.729 139.772 114.524 139.702 114.324ZM119.251 103.366C119.17 103.446 119.06 103.492 118.946 103.492C118.832 103.492 118.722 103.446 118.642 103.366L117.488 102.148C117.396 104.735 117.348 108.185 117.429 111.996C117.494 115.03 117.644 118.313 117.93 121.591C118.306 126.127 118.912 130.641 119.747 135.115C120.437 138.678 121.207 141.481 121.957 142.872C123.983 143.233 128.215 143.2 132.301 142.392C134.556 142.008 136.731 141.25 138.737 140.15C136.026 140.367 133.305 140.43 130.587 140.338V140.338C130.482 140.334 130.382 140.291 130.306 140.22C130.25 140.163 130.209 140.092 130.188 140.015V140.015C129.075 135.78 128.265 131.471 127.762 127.121C127.296 123.366 127.192 119.576 127.449 115.801L127.514 114.982C128.053 108.562 128.274 105.64 129.945 104.255L130.004 104.212C130.672 103.736 131.453 103.443 132.268 103.36H132.333C134.094 103.197 135.865 103.157 137.632 103.242C139.303 103.269 141.292 103.301 143.664 103.242C143.72 103.24 143.776 103.25 143.829 103.271C143.881 103.291 143.929 103.322 143.97 103.361C144.01 103.4 144.043 103.447 144.065 103.498C144.088 103.55 144.1 103.606 144.1 103.662C144.1 103.776 144.056 103.886 143.976 103.967C143.897 104.049 143.788 104.096 143.674 104.099C141.292 104.142 139.292 104.099 137.616 104.099C135.821 104.099 134.381 104.045 133.303 104.099L134.322 105.177C134.395 105.261 134.433 105.37 134.428 105.481C134.423 105.592 134.375 105.697 134.294 105.773C134.213 105.85 134.106 105.892 133.995 105.892C133.883 105.891 133.777 105.847 133.697 105.77L132.236 104.228C131.768 104.297 131.315 104.443 130.894 104.659L133.832 107.754C133.878 107.793 133.915 107.841 133.941 107.895C133.967 107.95 133.982 108.009 133.984 108.069C133.985 108.13 133.974 108.19 133.952 108.246C133.929 108.302 133.894 108.352 133.851 108.394C133.807 108.436 133.755 108.468 133.698 108.488C133.641 108.509 133.581 108.517 133.521 108.512C133.46 108.508 133.402 108.491 133.349 108.462C133.295 108.434 133.249 108.394 133.212 108.346L130.22 105.198C129.964 105.492 129.759 105.828 129.616 106.19L131.379 108.045C131.421 108.085 131.454 108.134 131.476 108.187C131.499 108.241 131.51 108.298 131.51 108.357C131.51 108.415 131.497 108.472 131.474 108.525C131.451 108.579 131.418 108.627 131.375 108.667C131.333 108.707 131.283 108.738 131.229 108.758C131.174 108.778 131.116 108.788 131.058 108.785C131 108.782 130.943 108.768 130.891 108.742C130.839 108.717 130.792 108.681 130.754 108.638L129.309 107.117C128.872 108.767 128.673 111.284 128.366 115.068L128.296 115.893C128.045 119.607 128.149 123.336 128.608 127.029C129.078 131.09 129.817 135.114 130.818 139.077L132.338 137.508C132.419 137.428 132.529 137.382 132.643 137.382C132.757 137.382 132.867 137.428 132.948 137.508C132.987 137.548 133.019 137.595 133.04 137.647C133.062 137.698 133.073 137.754 133.073 137.81C133.073 137.866 133.062 137.922 133.04 137.974C133.019 138.025 132.987 138.072 132.948 138.112L131.573 139.535C135.09 139.574 138.606 139.394 142.1 138.996C141.938 137.564 142.291 136.12 143.094 134.923C143.897 133.727 145.1 132.854 146.487 132.462C147.874 132.069 149.355 132.183 150.667 132.781C151.978 133.38 153.034 134.424 153.647 135.729C153.875 134.751 153.98 133.748 153.959 132.743C153.941 130.83 153.381 128.96 152.342 127.353C151.145 125.583 149.39 124.264 147.356 123.607C145.6 123.028 143.76 122.751 141.912 122.787C141.812 125.326 141.397 127.843 140.677 130.28C140.586 130.619 140.521 130.862 140.505 130.964C140.495 131.02 140.475 131.074 140.445 131.122C140.414 131.17 140.375 131.211 140.329 131.244C140.282 131.277 140.23 131.3 140.175 131.313C140.119 131.325 140.062 131.327 140.006 131.317C139.95 131.308 139.897 131.287 139.849 131.257C139.801 131.227 139.759 131.188 139.726 131.141C139.694 131.095 139.67 131.043 139.658 130.987C139.645 130.932 139.644 130.875 139.653 130.819C139.653 130.673 139.75 130.415 139.847 130.059C140.588 127.569 140.994 124.991 141.055 122.394V122.394C141.055 121.494 140.99 120.636 140.909 119.839C140.818 118.938 140.688 118.114 140.537 117.375C140.515 117.264 140.538 117.148 140.6 117.053C140.663 116.958 140.76 116.892 140.871 116.869C140.984 116.848 141.099 116.872 141.194 116.935C141.289 116.999 141.355 117.097 141.378 117.208C141.534 117.974 141.669 118.825 141.766 119.752C141.836 120.442 141.885 121.181 141.906 121.962C142.499 121.93 143.168 121.914 143.89 121.898C147.003 121.913 150.108 121.588 153.151 120.928V120.928C153.226 120.903 153.307 120.903 153.382 120.928C153.437 120.946 153.486 120.975 153.528 121.014L153.566 121.057C155.582 123.536 161.651 125.024 167.861 125.024C170.446 125.044 173.024 124.758 175.542 124.173C177.689 123.71 179.711 122.791 181.472 121.477C182.182 120.949 182.77 120.274 183.194 119.497C183.619 118.72 183.87 117.86 183.93 116.976C183.93 116.879 183.93 116.788 183.93 116.691V110.955C183.924 107.776 182.658 104.729 180.41 102.481C178.162 100.233 175.115 98.9675 171.936 98.9618H121.267L122.199 99.9375C122.28 100.018 122.325 100.128 122.325 100.242C122.325 100.356 122.28 100.466 122.199 100.547C122.16 100.587 122.112 100.619 122.06 100.641C122.008 100.663 121.951 100.675 121.895 100.675C121.838 100.675 121.782 100.663 121.729 100.641C121.677 100.619 121.63 100.587 121.59 100.547L120.097 98.978H119.833C119.418 98.979 119.011 99.0887 118.652 99.2961L121.633 102.439C121.679 102.478 121.717 102.526 121.743 102.58C121.769 102.635 121.783 102.694 121.785 102.755C121.787 102.815 121.776 102.875 121.753 102.931C121.73 102.987 121.696 103.037 121.652 103.079C121.609 103.121 121.557 103.153 121.5 103.173C121.443 103.194 121.383 103.202 121.322 103.197C121.262 103.193 121.203 103.176 121.15 103.147C121.097 103.119 121.05 103.079 121.013 103.032L118.006 99.862C117.747 100.187 117.581 100.577 117.526 100.989L119.24 102.794C119.318 102.872 119.364 102.978 119.366 103.089C119.368 103.199 119.326 103.306 119.251 103.387V103.366ZM118.62 71.6867L120.835 77.9449C121.051 78.6124 121.42 79.22 121.914 79.7183C122.088 79.8966 122.305 80.0282 122.544 80.101C122.744 80.154 122.954 80.1446 123.148 80.0741C123.316 80.0098 123.471 79.9168 123.606 79.7992C122.528 77.3681 121.709 74.9478 120.943 72.6893C120.253 70.451 119.397 68.2673 118.383 66.1562C118.217 66.905 118.132 67.6694 118.13 68.4363C118.107 69.5468 118.273 70.6532 118.62 71.7082V71.6867ZM147.124 133.191C145.841 133.446 144.7 134.175 143.929 135.232C143.158 136.29 142.813 137.599 142.963 138.899L143.502 138.84C148.073 138.301 151.965 137.535 153.205 136.953C152.862 135.672 152.044 134.569 150.918 133.868C149.792 133.167 148.441 132.921 147.14 133.18L147.124 133.191ZM154.827 132.722C154.848 133.81 154.734 134.896 154.487 135.956C157.213 137.062 160.117 137.663 163.058 137.729C165.97 137.79 168.862 137.239 171.548 136.112C175.23 134.546 178.349 131.897 180.491 128.517C182.024 126.092 183.076 123.395 183.59 120.572C183.153 121.161 182.642 121.692 182.07 122.151C180.208 123.538 178.067 124.505 175.795 124.986C173.21 125.588 170.563 125.882 167.909 125.865C161.635 125.865 155.447 124.34 153.118 121.779C151.112 122.229 149.07 122.504 147.016 122.599C147.237 122.663 147.448 122.733 147.658 122.809C149.87 123.525 151.779 124.962 153.081 126.889C154.201 128.628 154.806 130.648 154.827 132.716V132.722ZM149.819 165.533C148.492 164.101 146.654 163.249 144.704 163.161C142.754 163.072 140.847 163.754 139.394 165.058L139.238 165.198C139.076 165.349 138.92 165.511 138.769 165.678C138.694 165.764 138.613 165.851 138.537 165.948C142.36 169.339 146.364 172.52 150.531 175.478C151.502 174.071 151.993 172.389 151.932 170.68C151.881 168.837 151.183 167.069 149.96 165.689L149.819 165.533ZM67.7891 98.9618C68.7216 106.201 69.7512 113.591 70.84 120.857L72.6727 120.609C72.7812 120.603 72.8881 120.637 72.9721 120.706C73.0562 120.775 73.1113 120.873 73.1262 120.98C73.1412 121.088 73.115 121.197 73.0529 121.286C72.9909 121.376 72.8974 121.438 72.7913 121.461L70.9694 121.709L71.1472 122.895L75.1415 122.356C75.2552 122.341 75.3701 122.372 75.4611 122.441C75.5521 122.511 75.6116 122.614 75.6267 122.728C75.6417 122.842 75.6109 122.957 75.5412 123.047C75.4714 123.138 75.3683 123.198 75.2547 123.213L71.282 123.752C71.3521 124.237 71.4276 124.722 71.503 125.213L73.3358 124.965C73.4442 124.958 73.5511 124.993 73.6351 125.062C73.7192 125.13 73.7743 125.228 73.7892 125.336C73.8042 125.443 73.778 125.553 73.7159 125.642C73.6539 125.731 73.5604 125.793 73.4543 125.817L71.6378 126.059C71.7995 127.137 71.9666 128.151 72.1283 129.186L72.4409 129.142C72.6889 129.142 72.9477 129.099 73.2118 129.094C74.122 129.065 75.0312 129.178 75.907 129.428C76.7789 129.676 77.6077 130.056 78.3649 130.555C78.412 130.586 78.4524 130.627 78.4839 130.674C78.5153 130.721 78.5372 130.774 78.5482 130.829C78.5592 130.885 78.5591 130.942 78.548 130.998C78.537 131.053 78.5151 131.106 78.4836 131.153C78.4526 131.201 78.4123 131.242 78.3652 131.273C78.3181 131.305 78.2651 131.327 78.2094 131.338C78.1536 131.35 78.0962 131.349 78.0405 131.338C77.9849 131.326 77.932 131.304 77.8852 131.272C76.5078 130.367 74.8861 129.906 73.2387 129.951C73.0123 129.951 72.7752 129.951 72.538 129.999L72.2739 130.037L72.387 130.749H72.5703C72.7805 130.749 72.9908 130.711 73.2172 130.706H73.422C75.3194 130.695 77.1448 131.431 78.505 132.754C79.8652 134.076 80.6512 135.881 80.6936 137.778V137.983C80.6848 139.29 80.3444 140.573 79.7043 141.713C79.0642 142.853 78.1452 143.812 77.0335 144.5C83.8415 143.96 87.5716 141.556 89.2103 137.702C91.07 133.32 90.2884 127.002 88.3209 119.283C88.3203 119.271 88.3203 119.258 88.3209 119.246C88.0892 118.346 87.7442 117.09 87.3614 115.731C87.0434 114.615 86.7092 113.478 86.402 112.529C86.3747 112.423 86.3891 112.31 86.4421 112.214C86.4951 112.118 86.5829 112.046 86.6874 112.012C86.7919 111.978 86.9053 111.986 87.0045 112.033C87.1038 112.08 87.1813 112.163 87.2213 112.265C87.5393 113.268 87.8789 114.421 88.1915 115.499C88.5365 116.707 88.8545 117.871 89.0809 118.734C90.7897 118.928 93.6466 119.089 96.9994 119.181C100.174 119.267 103.791 119.289 107.284 119.224L107.187 118.292C107.14 118.317 107.089 118.336 107.036 118.346C106.109 118.48 104.244 118.583 102.395 118.626C100.902 118.678 99.4064 118.651 97.9157 118.545C97.858 118.541 97.8017 118.525 97.7502 118.499C97.6987 118.472 97.653 118.436 97.6159 118.391C97.5788 118.347 97.551 118.296 97.5342 118.24C97.5174 118.185 97.5119 118.127 97.5181 118.069C97.5243 118.011 97.5419 117.956 97.5701 117.905C97.5982 117.855 97.6362 117.81 97.6819 117.775C97.7275 117.739 97.7799 117.713 97.8358 117.698C97.8917 117.683 97.9501 117.68 98.0074 117.688C99.4623 117.789 100.921 117.815 102.379 117.763C104.185 117.726 106.007 117.623 106.912 117.494C106.976 117.48 107.042 117.48 107.106 117.494C107.074 117.219 107.047 116.955 107.02 116.658C106.955 116.72 106.872 116.76 106.783 116.772C105.771 116.904 104.752 116.983 103.732 117.009C102.363 117.057 100.924 117.068 100.04 117.009C99.934 116.993 99.838 116.939 99.77 116.857C99.7021 116.774 99.6671 116.67 99.6718 116.563C99.6765 116.457 99.7206 116.356 99.7954 116.28C99.8703 116.203 99.9707 116.158 100.077 116.152C100.94 116.189 102.352 116.179 103.705 116.152C104.691 116.128 105.675 116.054 106.653 115.931C106.757 115.915 106.862 115.938 106.95 115.995C106.95 115.742 106.901 115.494 106.88 115.246C106.358 115.339 105.83 115.391 105.301 115.402C104.46 115.435 103.495 115.402 102.772 115.402C102.712 115.406 102.652 115.397 102.595 115.376C102.539 115.354 102.487 115.321 102.444 115.279C102.401 115.237 102.368 115.186 102.346 115.13C102.324 115.073 102.314 115.013 102.316 114.953C102.319 114.893 102.334 114.834 102.361 114.78C102.388 114.726 102.426 114.678 102.473 114.639C102.519 114.601 102.573 114.573 102.631 114.557C102.69 114.54 102.75 114.537 102.81 114.545C103.511 114.578 104.427 114.583 105.268 114.545C105.771 114.543 106.273 114.493 106.767 114.394H106.799L106.718 113.537H106.643C106.26 113.644 105.871 113.728 105.478 113.791C105.136 113.848 104.79 113.878 104.443 113.882C104.329 113.882 104.219 113.837 104.139 113.756C104.058 113.675 104.012 113.565 104.012 113.451C104.012 113.395 104.023 113.339 104.045 113.287C104.067 113.235 104.099 113.188 104.139 113.148C104.179 113.108 104.227 113.077 104.279 113.056C104.331 113.035 104.387 113.025 104.443 113.025C104.745 113.02 105.046 112.993 105.344 112.944C105.708 112.888 106.068 112.809 106.422 112.707C106.498 112.688 106.577 112.688 106.653 112.707C106.271 108.395 105.996 104.401 105.888 101.479V101.441C105.888 101.441 105.888 101.441 105.888 101.409C105.871 100.981 105.939 100.554 106.088 100.153C106.294 99.7166 106.567 99.3147 106.896 98.9618H67.7891Z" fill="white"/>
<path fill-rule="evenodd" clip-rule="evenodd" d="M93.1064 176.799H63.999V177.661H93.1064V176.799ZM106.043 177.661H183.999V176.799H106.043V177.661Z" fill="#E3F2FD"/>
</g>
<defs>
<linearGradient id="paint0_linear_401_30479" x1="0" y1="0" x2="248" y2="242" gradientUnits="userSpaceOnUse">
<stop stop-color="#0D47A1"/>
<stop offset="1" stop-color="#3C73C9"/>
</linearGradient>
<clipPath id="clip0_401_30479">
<rect width="120" height="113.666" fill="white" transform="translate(64 64)"/>
</clipPath>
</defs>
</svg>
