<svg width="316" height="446" viewBox="0 0 316 446" fill="none" xmlns="http://www.w3.org/2000/svg">
<g clip-path="url(#clip0_129_42247)">
<path d="M0 0H451V518H0V0Z" fill="url(#paint0_linear_129_42247)"/>
<path opacity="0.15" d="M124.101 199.191L409.169 269.388L435.071 394.489L-18.1294 458.005L-43.4421 277.395L16.6946 225.134C46.149 199.537 86.2105 189.861 124.101 199.191Z" fill="url(#paint1_linear_129_42247)"/>
<path opacity="0.15" d="M212.389 263.688L-112.179 343.879L-139.577 476.303L339.064 543.385L365.857 352.207L284.116 281.023C264.459 263.905 237.694 257.436 212.389 263.688Z" fill="url(#paint2_linear_129_42247)"/>
</g>
<defs>
<linearGradient id="paint0_linear_129_42247" x1="225.5" y1="0" x2="225.5" y2="518" gradientUnits="userSpaceOnUse">
<stop stop-color="#407AFF"/>
<stop offset="1" stop-color="#161A20"/>
</linearGradient>
<linearGradient id="paint1_linear_129_42247" x1="42.4424" y1="132.849" x2="180.293" y2="407.48" gradientUnits="userSpaceOnUse">
<stop stop-color="#407AFF"/>
<stop offset="1" stop-color="white" stop-opacity="0"/>
</linearGradient>
<linearGradient id="paint2_linear_129_42247" x1="275.195" y1="199.238" x2="129.114" y2="489.771" gradientUnits="userSpaceOnUse">
<stop stop-color="white"/>
<stop offset="1" stop-color="white" stop-opacity="0"/>
</linearGradient>
<clipPath id="clip0_129_42247">
<path d="M0 16C0 7.16344 7.16344 0 16 0H316V446H16C7.16344 446 0 438.837 0 430V16Z" fill="white"/>
</clipPath>
</defs>
</svg>
