<svg width="20" height="20" viewBox="0 0 20 20" fill="none" xmlns="http://www.w3.org/2000/svg">
<path d="M9.84053 18.4545L9.84051 18.4544L9.8329 18.4571C9.75437 18.4846 9.67218 18.4991 9.58942 18.5L9.57786 18.5C9.57762 18.5 9.57737 18.5 9.57713 18.5C9.5268 18.4998 9.47658 18.4948 9.42713 18.4849C9.39114 18.4774 9.35564 18.4675 9.32086 18.4553L9.32089 18.4553L9.3127 18.4525C7.82413 17.9586 6.45982 17.1384 5.31634 16.0492C4.42218 15.1544 3.73553 14.0674 3.30709 12.8673C2.63717 10.6248 2.38081 8.27561 2.55106 5.93816L2.55238 5.92002V5.90184V5.88075C2.56032 5.70392 2.5656 5.51727 2.56826 5.31754C2.57515 4.96052 2.7144 4.62071 2.95604 4.36569C3.19581 4.11264 3.51859 3.96164 3.86002 3.93993C5.84588 3.89605 7.73893 3.08324 9.15272 1.66977L9.17645 1.64605C9.2899 1.55124 9.43127 1.5 9.57636 1.5C9.73357 1.5 9.88641 1.56016 10.0041 1.67071L10.0171 1.68296L10.0247 1.68911C11.4366 3.09106 13.3217 3.89695 15.2989 3.94083C15.6403 3.96254 15.9631 4.11353 16.2029 4.36659C16.4439 4.62091 16.583 4.95956 16.5906 5.31551C16.5907 5.52474 16.5988 5.71221 16.6065 5.88179V5.88384V5.90192L16.6078 5.91996C16.7775 8.26277 16.5194 10.6172 15.8466 12.8643C15.4167 14.0663 14.7282 15.155 13.832 16.051C12.6899 17.1395 11.3274 17.9598 9.84053 18.4545Z" stroke="white"/>
<path d="M11.5801 9.35311L9.59186 11.3737L9.16234 11.8102C9.06485 11.9092 8.93264 11.9649 8.79479 11.9649C8.65694 11.9649 8.52475 11.9092 8.42726 11.8102L7.50353 10.8715C7.40903 10.7718 7.35679 10.6384 7.35805 10.5C7.35932 10.3616 7.41398 10.2292 7.51029 10.1313C7.6066 10.0334 7.73687 9.97788 7.87307 9.97659C8.00927 9.97531 8.14052 10.0284 8.2386 10.1244L8.79479 10.6897L10.8451 8.60608C10.893 8.55553 10.9504 8.51518 11.0138 8.48741C11.0773 8.45964 11.1455 8.44501 11.2146 8.44436C11.2837 8.44371 11.3522 8.45706 11.4161 8.48362C11.4801 8.51019 11.5382 8.54944 11.587 8.59908C11.6359 8.64872 11.6745 8.70775 11.7006 8.77274C11.7268 8.83772 11.7399 8.90735 11.7393 8.97756C11.7386 9.04776 11.7242 9.11713 11.6969 9.18161C11.6696 9.24609 11.6299 9.3044 11.5801 9.35311Z" fill="white"/>
</svg>
