<svg width="904" height="673" viewBox="0 0 904 673" fill="none" xmlns="http://www.w3.org/2000/svg">
<g clip-path="url(#clip0_166_41043)">
<path d="M904 591.433H0V591.885H904V591.433Z" fill="#D1E3FF"/>
<path d="M805.609 603.047H763.573V603.498H805.609V603.047Z" fill="#D1E3FF"/>
<path d="M652.688 612.854H453.031V613.306H652.688V612.854Z" fill="#D1E3FF"/>
<path d="M367.621 613.089H348.04V613.541H367.621V613.089Z" fill="#D1E3FF"/>
<path d="M208.932 607.671H141.024V608.122H208.932V607.671Z" fill="#D1E3FF"/>
<path d="M746.071 603.047H706.331V603.498H746.071V603.047Z" fill="#D1E3FF"/>
<path d="M126.271 607.671H93.3833V608.122H126.271V607.671Z" fill="#D1E3FF"/>
<path d="M428.496 510.877H79.3893C76.6545 510.873 74.0332 509.784 72.1011 507.85C70.1689 505.917 69.0837 503.296 69.0837 500.564V10.3133C69.1075 7.59685 70.2032 4.99949 72.1328 3.08537C74.0624 1.17125 76.6701 0.0949854 79.3893 0.090332H428.496C431.234 0.090332 433.86 1.17691 435.796 3.11102C437.732 5.04514 438.82 7.66836 438.82 10.4036V500.564C438.82 503.299 437.732 505.923 435.796 507.857C433.86 509.791 431.234 510.877 428.496 510.877ZM79.3893 0.451569C76.7743 0.456354 74.2681 1.49746 72.4207 3.34638C70.5733 5.19529 69.5357 7.70093 69.5357 10.3133V500.564C69.5357 503.177 70.5733 505.682 72.4207 507.531C74.2681 509.38 76.7743 510.421 79.3893 510.426H428.496C431.113 510.421 433.621 509.381 435.471 507.532C437.321 505.684 438.363 503.178 438.368 500.564V10.3133C438.363 7.69927 437.321 5.19367 435.471 3.34528C433.621 1.49688 431.113 0.456344 428.496 0.451569H79.3893Z" fill="#D1E3FF"/>
<path d="M819.584 510.877H470.46C467.723 510.873 465.1 509.785 463.165 507.852C461.23 505.918 460.141 503.298 460.136 500.564V10.3133C460.165 7.59521 461.264 4.99786 463.197 3.08424C465.129 1.17062 467.739 0.0949347 470.46 0.090332H819.584C822.301 0.0997323 824.904 1.1781 826.829 3.09171C828.755 5.00532 829.848 7.59997 829.872 10.3133V500.564C829.872 503.293 828.789 505.911 826.861 507.844C824.933 509.777 822.316 510.868 819.584 510.877ZM470.46 0.451569C467.843 0.456344 465.335 1.49688 463.485 3.34528C461.634 5.19367 460.593 7.69927 460.588 10.3133V500.564C460.593 503.178 461.634 505.684 463.485 507.532C465.335 509.381 467.843 510.421 470.46 510.426H819.584C822.201 510.421 824.709 509.381 826.56 507.532C828.41 505.684 829.451 503.178 829.456 500.564V10.3133C829.451 7.69927 828.41 5.19367 826.56 3.34528C824.709 1.49688 822.201 0.456344 819.584 0.451569H470.46Z" fill="#D1E3FF"/>
<path d="M585.014 271.216H721.645V33.5769L585.014 33.5769V271.216Z" fill="#D1E3FF"/>
<path d="M577.638 271.216H714.269V33.5769L577.638 33.5769V271.216Z" fill="#F3F8FF"/>
<path d="M700.998 260.072V44.739L590.873 44.739V260.072H700.998Z" fill="white"/>
<path d="M596.459 260.09V44.7571H590.872V260.09H596.459Z" fill="#D1E3FF"/>
<path d="M583.116 208.108L708.79 208.108V193.135L583.116 193.135V208.108Z" fill="#F3F8FF"/>
<path d="M352.813 271.216H489.444L489.444 33.5769L352.813 33.5769V271.216Z" fill="#D1E3FF"/>
<path d="M345.437 271.216H482.067L482.067 33.5769L345.437 33.5769V271.216Z" fill="#F3F8FF"/>
<path d="M468.814 260.09V44.7571L358.689 44.7571V260.09H468.814Z" fill="white"/>
<path d="M364.258 260.072V44.7391H358.671V260.072H364.258Z" fill="#D1E3FF"/>
<path d="M350.915 208.108L476.589 208.108V193.135L350.915 193.135V208.108Z" fill="#F3F8FF"/>
<path d="M120.63 271.216H257.26L257.26 33.5769L120.63 33.5769L120.63 271.216Z" fill="#D1E3FF"/>
<path d="M113.253 271.216H249.884L249.884 33.5769L113.253 33.5769L113.253 271.216Z" fill="#F3F8FF"/>
<path d="M236.613 260.072V44.739L126.488 44.739L126.488 260.072H236.613Z" fill="white"/>
<path d="M132.074 260.072V44.739H126.488L126.488 260.072H132.074Z" fill="#D1E3FF"/>
<path d="M118.731 208.108L244.406 208.108V193.135L118.731 193.135V208.108Z" fill="#F3F8FF"/>
<path d="M253.12 418.257C228.477 421.652 213.236 368.153 267.584 322.854C264.745 375.288 296.114 412.332 253.12 418.257Z" fill="#D1E3FF"/>
<path d="M235.04 488.318C199.314 463.303 223.758 375.902 334.317 382.241C286.514 446.578 297.344 531.919 235.04 488.318Z" fill="#CADEFC"/>
<path d="M247.696 487.758C271.435 462.219 237.644 397.937 152.216 421.418C200.417 463.682 206.275 532.263 247.696 487.758Z" fill="#CADEFC"/>
<path d="M217.213 450.479C209.005 440.491 199.314 429.256 201.664 417.372C204.015 405.487 209.891 396.655 205.28 384.012C199.675 368.84 200.76 350.742 210.234 352.259C219.708 353.776 230.321 364.902 230.122 379.55C229.959 393.783 239.162 398.335 248.021 405.902C256.881 413.47 260.008 424.542 261.581 435.379C264.329 452.592 286.658 449.341 292.589 464.278C298.718 478.728 286.496 497.963 266.951 502.388C247.407 506.814 233.485 509.613 220.16 494.333C206.618 478.24 229.363 464.784 217.213 450.479Z" fill="#F3F8FF"/>
<path d="M284.453 591.433H211.03L205.497 491.515H289.985L284.453 591.433Z" fill="#E3EEFF"/>
<path d="M295.463 489.474H200.019V500.239H295.463V489.474Z" fill="#E3EEFF"/>
<path d="M717.306 577.869H766.7V363.891H717.306V577.869Z" fill="#E3EEFF"/>
<path d="M330.231 591.433H757.208V577.869H330.231V591.433Z" fill="#E3EEFF"/>
<path d="M717.306 363.873H320.757V577.851H717.306V363.873Z" fill="#F3F8FF"/>
<path d="M697.888 390.225H340.175V460.413H697.888V390.225Z" fill="#E3EEFF"/>
<path d="M697.888 481.347H340.175V551.535H697.888V481.347Z" fill="#E3EEFF"/>
<path d="M407.758 430.123H630.305C631.579 430.118 632.799 429.611 633.7 428.711C634.601 427.811 635.109 426.592 635.114 425.319C635.114 424.043 634.608 422.819 633.707 421.915C632.805 421.011 631.582 420.501 630.305 420.496H407.758C406.481 420.501 405.258 421.011 404.356 421.915C403.455 422.819 402.949 424.043 402.949 425.319C402.954 426.592 403.462 427.811 404.363 428.711C405.264 429.611 406.484 430.118 407.758 430.123Z" fill="#F3F8FF"/>
<path d="M407.758 521.245H630.305C631.579 521.24 632.799 520.733 633.7 519.833C634.601 518.933 635.109 517.713 635.114 516.441C635.109 515.168 634.601 513.949 633.7 513.049C632.799 512.149 631.579 511.641 630.305 511.636H407.758C406.484 511.641 405.264 512.149 404.363 513.049C403.462 513.949 402.954 515.168 402.949 516.441C402.954 517.713 403.462 518.933 404.363 519.833C405.264 520.733 406.484 521.24 407.758 521.245Z" fill="#F3F8FF"/>
<path d="M607.832 332.662C607.832 332.662 664.422 386.233 698.015 332.445C698.015 332.445 689.083 315.16 679.663 313.679C670.244 312.198 669.864 328.634 661.583 323.559C653.303 318.483 643.63 301.126 638.351 310.392C633.071 319.657 625.821 306.454 617.92 305.696C610.019 304.937 607.832 332.662 607.832 332.662Z" fill="#F3F8FF"/>
<path d="M701.613 328.959C701.613 328.959 700.383 363.891 652.688 363.891C604.993 363.891 603.764 328.959 603.764 328.959H701.613Z" fill="#E3EEFF"/>
<path d="M460.335 310.753H487.798V363.891H407.162C407.162 349.801 412.763 336.288 422.735 326.323C432.706 316.358 446.231 310.758 460.335 310.753Z" fill="#F3F8FF"/>
<path d="M513.128 310.753H487.798V363.891H513.128V310.753Z" fill="#D1E3FF"/>
<path d="M452 673C645.605 673 802.553 663.846 802.553 652.554C802.553 641.262 645.605 632.108 452 632.108C258.395 632.108 101.447 641.262 101.447 652.554C101.447 663.846 258.395 673 452 673Z" fill="#F0F6FF"/>
<path d="M394.144 257.94L392.951 259.746C392.589 260.27 392.209 260.74 391.848 261.228C391.106 262.203 390.329 263.034 389.552 264.027C387.979 265.833 386.388 267.639 384.688 269.229C381.29 272.491 377.665 275.509 373.84 278.26C370.02 281.01 366.001 283.473 361.817 285.629C359.701 286.658 357.604 287.724 355.416 288.591L352.144 289.892L351.222 290.235C350.716 290.397 350.246 290.578 349.685 290.704C348.592 290.977 347.467 291.104 346.34 291.084C344.192 291.069 342.079 290.543 340.175 289.548C338.644 288.75 337.238 287.734 335.999 286.532C334.036 284.598 332.339 282.411 330.954 280.03C328.586 275.906 326.653 271.548 325.187 267.025C322.342 258.499 320.309 249.725 319.112 240.818L326.669 239.156C328.043 243.112 329.454 247.194 331.008 251.131C332.563 255.068 334.118 258.988 335.926 262.709C337.572 266.3 339.532 269.739 341.784 272.986C342.679 274.332 343.756 275.547 344.984 276.598C345.337 276.887 345.734 277.119 346.16 277.284C346.413 277.284 346.395 277.284 346.268 277.284H346.141L346.738 276.995L349.432 275.695C351.24 274.828 352.958 273.889 354.693 272.841C358.117 270.792 361.425 268.555 364.601 266.14C367.735 263.68 370.712 261.025 373.515 258.193C374.925 256.82 376.263 255.357 377.546 253.876C378.179 253.136 378.812 252.395 379.354 251.655L380.222 250.553L380.927 249.614L394.144 257.94Z" fill="#CE7A63"/>
<path d="M372.249 257.164L381.416 279.109L374.78 283.263L364.475 263.323L372.249 257.164Z" fill="#14365B"/>
<path d="M398.194 238.668C383.242 238.47 368.054 257.38 367.675 257.85L379.499 285.629C379.499 285.629 405.806 264.298 407.125 255.954C408.499 247.266 407.668 238.795 398.194 238.668Z" fill="#0053CC"/>
<path d="M325.44 236.284L315.098 228.247L313.001 244.069C313.001 244.069 323.053 248.006 328.405 244.593L328.26 241.703C328.206 240.65 327.927 239.622 327.44 238.687C326.953 237.752 326.271 236.933 325.44 236.284Z" fill="#CE7A63"/>
<path d="M301.321 227.434L301.972 239.463L313.055 244.051L315.152 228.247L301.321 227.434Z" fill="#CE7A63"/>
<path d="M527.936 235.002L543.919 231.01L532.745 219.613C532.745 219.613 522.385 223.84 524.916 232.871L527.936 235.002Z" fill="#CE7A63"/>
<path d="M551.856 228.175L550.536 215.64L532.655 219.613L543.828 231.01L551.856 228.175Z" fill="#CE7A63"/>
<path d="M475.811 636.696L460.931 638.141L448.51 603.047L463.39 601.62L475.811 636.696Z" fill="#CE7A63"/>
<path d="M635.096 562.968L624.14 573.588L595.971 551.625L606.946 541.005L635.096 562.968Z" fill="#CE7A63"/>
<path d="M620.975 571.529L629.401 556.592C629.543 556.335 629.773 556.139 630.049 556.039C630.325 555.94 630.628 555.943 630.901 556.05L643.702 560.999C644.019 561.136 644.303 561.339 644.536 561.593C644.769 561.847 644.946 562.148 645.055 562.475C645.164 562.802 645.203 563.149 645.169 563.492C645.136 563.835 645.03 564.167 644.859 564.467C641.84 569.632 640.122 571.962 636.416 578.537C634.138 582.583 629.69 591.848 626.544 597.43C623.398 603.011 617.703 600.193 618.517 597.592C622.133 585.906 621.518 579.386 620.542 574.22C620.362 573.3 620.516 572.346 620.975 571.529Z" fill="#14365B"/>
<path d="M457.966 633.589H476.046C476.371 633.596 476.685 633.707 476.942 633.905C477.199 634.104 477.386 634.379 477.475 634.691L481.416 649.014C481.516 649.353 481.534 649.71 481.47 650.057C481.405 650.404 481.259 650.73 481.044 651.01C480.829 651.29 480.551 651.515 480.232 651.668C479.914 651.82 479.563 651.895 479.21 651.886C472.864 651.777 469.772 651.398 461.799 651.398C456.9 651.398 440.935 651.922 434.155 651.922C427.375 651.922 426.145 645.221 428.894 644.697C441.188 641.97 451.566 638.231 455.345 634.655C456.044 633.969 456.986 633.586 457.966 633.589Z" fill="#14365B"/>
<path d="M448.529 603.065L454.911 621.145H470.315L463.408 601.62L448.529 603.065Z" fill="#BC6753"/>
<path d="M606.964 541.005L595.989 551.643L610.507 562.95L621.482 552.329L606.964 541.005Z" fill="#BC6753"/>
<path d="M383.639 243.491C383.639 243.491 377.492 248.169 418.913 328.923L477.963 309.868C469.212 286.189 464.403 271.396 459.883 218.421C451.124 219.389 442.447 220.989 433.92 223.208C424.802 225.5 415.845 228.39 407.107 231.859C395.825 236.7 383.639 243.491 383.639 243.491Z" fill="#0053CC"/>
<path d="M421.427 193.893C422.511 203.069 425.929 219.396 433.83 223.207C433.83 223.207 434.282 232.708 418.263 237.874C400.635 243.563 407.017 231.859 407.017 231.859C415.894 226.441 413.327 219.396 409.494 213.255L421.427 193.893Z" fill="#CE7A63"/>
<path d="M391.794 239.12C396.151 236.862 401.701 234.117 407.017 231.895C415.766 228.362 424.756 225.459 433.92 223.207C439.073 221.799 444.28 220.751 448.673 220.01C449.089 221.239 447.842 224.418 444.786 228.807C435.113 236.826 414.484 247.248 399.279 246.868C392.625 244.394 390.962 241.775 391.794 239.12Z" fill="#CE7A63"/>
<path d="M444.768 228.807C438.2 237.601 430.351 245.364 421.481 251.835C413.928 250.917 406.485 249.253 399.26 246.868C414.393 247.248 435.023 236.826 444.768 228.807Z" fill="#14365B"/>
<path d="M416.563 201.786L409.494 213.219C410.417 214.644 411.21 216.15 411.862 217.717C415.37 216.001 419.836 210.926 418.986 206.88C418.482 205.054 417.662 203.33 416.563 201.786Z" fill="#BC6753"/>
<path d="M425.007 176.951C425.911 192.069 426.634 198.445 419.98 207.078C409.982 220.047 391.197 217.915 385.773 203.322C380.909 190.227 380.24 167.704 394.216 159.973C397.287 158.249 400.748 157.338 404.27 157.324C407.793 157.311 411.26 158.196 414.344 159.897C417.428 161.597 420.026 164.056 421.892 167.041C423.758 170.026 424.83 173.437 425.007 176.951Z" fill="#CE7A63"/>
<path d="M454.895 149.857C458.314 134.839 448.898 119.896 433.864 116.481C418.83 113.066 403.872 122.473 400.454 137.491C397.035 152.51 406.452 167.453 421.485 170.868C436.519 174.282 451.477 164.876 454.895 149.857Z" fill="#0F264C"/>
<path d="M420.703 155.783C426.453 159.576 429.31 165.392 427.086 168.769C424.862 172.147 418.389 171.822 412.622 168.029C406.854 164.236 404.016 158.42 406.239 155.042C408.463 151.665 414.936 151.99 420.703 155.783Z" fill="#9FC6FF"/>
<path d="M417.648 187.265C419.149 183.797 413.923 173.501 415.044 169.654C412.043 166.855 381.614 176.753 384.073 169.528C386.424 162.592 393.837 153.399 410.759 157.246C428.839 161.364 430.412 176.987 428.387 181.972C426.362 186.957 423.488 192.141 423.488 192.141L417.648 187.265Z" fill="#0F264C"/>
<path d="M428.984 190.209C429.022 193.134 427.905 195.957 425.874 198.066C423.144 200.829 419.854 198.842 419.004 195.266C418.226 192.051 418.733 186.723 422.24 185.314C423.013 185.013 423.85 184.911 424.673 185.017C425.496 185.123 426.279 185.434 426.95 185.922C427.621 186.409 428.159 187.057 428.515 187.806C428.87 188.555 429.032 189.381 428.984 190.209Z" fill="#CE7A63"/>
<path d="M418.913 328.923C418.913 328.923 391.54 462.291 406.8 506.272C422.674 552.022 448.51 615.889 448.51 615.889L472.647 614.516C472.647 614.516 452.759 533.816 447.86 497.367C441.152 447.119 469.881 312.559 469.881 312.559L418.913 328.923Z" fill="#9FC6FF"/>
<path d="M474.546 615.094L446.612 616.683L442.128 605.72L472.936 602.523L474.546 615.094Z" fill="#0053CC"/>
<path d="M447.86 339.182C443.665 354.679 447.172 377.907 455.092 394.198C457.026 381.555 459.087 369.309 461.04 358.346C456.972 350.489 452.488 343.517 447.86 339.182Z" fill="#77B3FC"/>
<path d="M434.499 323.884C434.499 323.884 475.142 420.93 502.063 474.212C523.759 517.307 604.27 562.408 604.27 562.408L618.734 547.091C618.734 547.091 558.564 493.719 543.557 464.495C495.537 370.953 505.408 330.097 477.999 309.868L434.499 323.884Z" fill="#9FC6FF"/>
<path d="M621.428 544.906L601.54 566.02L588.956 559.391L611.863 536.074L621.428 544.906Z" fill="#0053CC"/>
<path d="M477.728 306.129L482.085 310.554C482.429 310.897 482.085 311.475 481.398 311.692L419.474 331.56C418.932 331.741 418.407 331.56 418.263 331.289L416.039 326.196C415.876 325.835 416.238 325.383 416.816 325.184L476.607 305.912C476.796 305.849 476.999 305.835 477.196 305.873C477.392 305.911 477.576 305.999 477.728 306.129Z" fill="#14365B"/>
<path d="M471.888 315.395L473.479 314.889C473.804 314.781 473.985 314.528 473.913 314.347L470.948 307.719C470.948 307.538 470.514 307.466 470.207 307.556L468.597 308.08C468.29 308.08 468.091 308.423 468.182 308.622L471.147 315.232C471.201 315.431 471.526 315.503 471.888 315.395Z" fill="#9FC6FF"/>
<path d="M424.157 330.783L425.766 330.26C426.073 330.151 426.272 329.916 426.182 329.718L423.217 323.107C423.126 322.908 422.801 322.836 422.475 322.945L420.866 323.45C420.559 323.559 420.36 323.794 420.45 323.992L423.416 330.603C423.506 330.802 423.831 330.874 424.157 330.783Z" fill="#9FC6FF"/>
<path d="M448.004 323.089L449.595 322.565C449.921 322.565 450.12 322.222 450.029 322.023L447.064 315.413C446.974 315.214 446.63 315.142 446.323 315.25L444.714 315.774C444.406 315.864 444.207 316.117 444.298 316.298L447.263 322.927C447.352 323.03 447.473 323.102 447.606 323.131C447.74 323.16 447.88 323.146 448.004 323.089Z" fill="#9FC6FF"/>
<path d="M402.732 183.923C402.877 185.133 402.352 186.217 401.557 186.307C400.761 186.398 399.984 185.494 399.839 184.266C399.695 183.038 400.219 181.972 401.014 181.882C401.81 181.792 402.587 182.695 402.732 183.923Z" fill="#0F264C"/>
<path d="M388.901 185.603C389.063 186.831 388.521 187.897 387.725 187.987C386.93 188.077 386.153 187.174 386.008 185.964C385.863 184.754 386.388 183.67 387.183 183.562C387.979 183.453 388.72 184.32 388.901 185.603Z" fill="#0F264C"/>
<path d="M387.545 183.598L384.507 183.11C384.507 183.11 386.297 185.224 387.545 183.598Z" fill="#0F264C"/>
<path d="M392.824 187.265C392.068 190.182 390.919 192.983 389.407 195.591C390.088 195.954 390.839 196.167 391.609 196.217C392.379 196.267 393.151 196.152 393.873 195.88L392.824 187.265Z" fill="#BA4D3C"/>
<path d="M398.718 200.161C398.631 200.162 398.546 200.131 398.48 200.075C398.413 200.018 398.37 199.94 398.356 199.854C398.35 199.757 398.38 199.661 398.44 199.584C398.5 199.508 398.586 199.456 398.682 199.438C400.205 199.287 401.671 198.779 402.962 197.957C404.253 197.135 405.332 196.022 406.113 194.706C406.132 194.662 406.161 194.621 406.196 194.588C406.231 194.555 406.273 194.529 406.318 194.512C406.364 194.495 406.413 194.488 406.461 194.49C406.51 194.492 406.557 194.504 406.601 194.525C406.644 194.547 406.682 194.576 406.714 194.612C406.745 194.648 406.769 194.69 406.784 194.735C406.799 194.781 406.805 194.829 406.802 194.876C406.798 194.924 406.785 194.97 406.764 195.013C405.942 196.448 404.787 197.665 403.397 198.561C402.006 199.457 400.42 200.005 398.772 200.161H398.718Z" fill="#0F264C"/>
<path d="M404.449 179.588C404.276 179.586 404.109 179.522 403.979 179.408C403.311 178.79 402.504 178.341 401.627 178.099C400.749 177.857 399.826 177.829 398.935 178.017C398.842 178.044 398.745 178.053 398.649 178.042C398.553 178.031 398.461 178.002 398.376 177.955C398.292 177.907 398.218 177.844 398.159 177.768C398.1 177.692 398.056 177.604 398.031 177.511C398.004 177.42 397.995 177.324 398.006 177.229C398.017 177.135 398.047 177.043 398.095 176.96C398.142 176.878 398.206 176.805 398.282 176.748C398.358 176.69 398.445 176.649 398.537 176.626C399.658 176.38 400.822 176.404 401.931 176.696C403.041 176.988 404.066 177.54 404.92 178.306C404.988 178.373 405.042 178.453 405.079 178.542C405.116 178.63 405.135 178.725 405.135 178.821C405.135 178.916 405.116 179.011 405.079 179.1C405.042 179.188 404.988 179.268 404.92 179.335C404.8 179.475 404.632 179.565 404.449 179.588Z" fill="#0F264C"/>
<path d="M381.759 180.004C381.652 180.029 381.541 180.029 381.434 180.004C381.267 179.912 381.142 179.759 381.085 179.578C381.027 179.396 381.042 179.199 381.126 179.028C381.621 177.996 382.355 177.095 383.266 176.401C384.178 175.707 385.242 175.239 386.37 175.037C386.559 175.016 386.748 175.071 386.897 175.19C387.046 175.308 387.142 175.48 387.165 175.669C387.178 175.764 387.171 175.86 387.146 175.953C387.121 176.045 387.078 176.132 387.019 176.208C386.96 176.283 386.887 176.346 386.803 176.394C386.72 176.441 386.628 176.471 386.532 176.482C385.64 176.648 384.8 177.025 384.083 177.581C383.366 178.137 382.792 178.856 382.41 179.679C382.34 179.785 382.243 179.872 382.129 179.929C382.014 179.986 381.887 180.012 381.759 180.004Z" fill="#0F264C"/>
<path d="M471.888 232.527L472.575 233.394L473.425 234.424C474.003 235.11 474.6 235.815 475.233 236.501C476.48 237.892 477.782 239.264 479.174 240.565C481.9 243.235 484.78 245.744 487.798 248.079C490.864 250.398 494.044 252.562 497.326 254.563C498.972 255.556 500.653 256.495 502.353 257.416L504.938 258.735L506.186 259.367C506.493 259.512 506.8 259.656 507.09 259.764C508.012 260.149 509.001 260.351 510 260.361C510.919 260.308 511.801 259.981 512.532 259.421C514.955 257.415 516.869 254.865 518.118 251.98C519.797 248.501 521.146 244.873 522.15 241.143C523.268 237.339 524.191 233.481 524.916 229.583L532.637 230.071C532.878 238.962 531.607 247.83 528.876 256.297C528.102 258.605 527.103 260.831 525.893 262.943C524.55 265.351 522.814 267.518 520.758 269.355C518.309 271.528 515.316 272.995 512.098 273.6C508.969 274.145 505.755 273.922 502.732 272.95C502.027 272.751 501.376 272.498 500.707 272.245L499.134 271.595L496.061 270.313C494.018 269.391 492.011 268.506 490.04 267.387C486.085 265.301 482.273 262.954 478.632 260.361C474.985 257.734 471.513 254.874 468.236 251.799C466.609 250.246 465.036 248.602 463.499 246.904C462.739 246.038 461.98 245.098 461.257 244.267L460.154 242.841C459.774 242.335 459.485 241.938 458.979 241.215L471.888 232.527Z" fill="#CE7A63"/>
<path d="M484.706 242.046L473.388 261.029L467.874 255.809L478.324 236.808L484.706 242.046Z" fill="#14365B"/>
<path d="M459.955 218.421C466.464 218.313 482.266 236.953 482.266 236.953L468.525 260.848C468.525 260.848 451.023 245.442 451.042 237.007C451.06 228.211 452.542 218.638 459.955 218.421Z" fill="#0053CC"/>
<path d="M618.011 579.639C617.507 579.619 617.025 579.435 616.636 579.115C616.455 578.994 616.31 578.826 616.218 578.628C616.125 578.431 616.089 578.212 616.112 577.995C616.275 576.044 621.175 573.48 621.717 573.191C621.776 573.152 621.845 573.131 621.916 573.131C621.987 573.131 622.056 573.152 622.115 573.191C622.169 573.236 622.21 573.295 622.232 573.362C622.254 573.429 622.258 573.501 622.241 573.57C621.681 575.521 620.433 578.88 618.625 579.476C618.432 579.566 618.223 579.621 618.011 579.639ZM621.283 574.22C619.367 575.304 616.926 577.002 616.835 578.013C616.821 578.111 616.838 578.21 616.883 578.298C616.929 578.385 617 578.456 617.088 578.501C617.257 578.665 617.468 578.78 617.697 578.834C617.926 578.888 618.166 578.879 618.39 578.808C619.385 578.519 620.433 576.821 621.283 574.256V574.22Z" fill="#407BFF"/>
<path d="M617.342 574.906C616.547 574.974 615.753 574.777 615.082 574.346C614.864 574.159 614.717 573.903 614.664 573.62C614.612 573.338 614.657 573.046 614.793 572.793C614.89 572.531 615.047 572.295 615.25 572.104C615.454 571.913 615.7 571.772 615.968 571.691C618.065 570.987 621.898 573.1 622.061 573.19C622.12 573.222 622.169 573.269 622.204 573.326C622.239 573.383 622.258 573.449 622.26 573.516C622.257 573.578 622.239 573.638 622.208 573.692C622.176 573.745 622.132 573.79 622.079 573.823C620.602 574.537 618.983 574.908 617.342 574.906ZM616.962 572.269C616.705 572.266 616.449 572.302 616.203 572.378C616.036 572.43 615.883 572.518 615.755 572.637C615.626 572.756 615.526 572.902 615.462 573.064C615.281 573.498 615.462 573.678 615.462 573.805C616.275 574.491 619.276 574.202 620.994 573.498C619.742 572.833 618.373 572.416 616.962 572.269Z" fill="#407BFF"/>
<path d="M449.939 636.588C448.674 636.694 447.408 636.396 446.323 635.739C446.039 635.53 445.807 635.258 445.647 634.945C445.487 634.631 445.403 634.284 445.401 633.932C445.379 633.742 445.41 633.548 445.49 633.374C445.569 633.199 445.695 633.049 445.853 632.939C447.498 631.819 453.681 634.637 454.893 635.197C454.962 635.231 455.019 635.286 455.054 635.354C455.09 635.422 455.103 635.5 455.091 635.576C455.085 635.65 455.056 635.719 455.007 635.774C454.958 635.83 454.892 635.868 454.82 635.883C453.221 636.282 451.585 636.518 449.939 636.588ZM447.046 633.463C446.802 633.441 446.556 633.491 446.341 633.607C446.286 633.645 446.243 633.697 446.218 633.758C446.192 633.819 446.185 633.885 446.196 633.951C446.202 634.187 446.263 634.419 446.372 634.629C446.482 634.838 446.638 635.02 446.829 635.161C448.257 636.244 451.656 635.829 453.645 635.468C451.559 634.472 449.334 633.796 447.046 633.463Z" fill="#407BFF"/>
<path d="M454.82 635.955H454.676C452.633 635.124 448.51 631.819 448.745 630.103C448.745 629.724 449.035 629.254 449.975 629.146C453.591 628.676 455.11 635.269 455.164 635.54C455.179 635.604 455.177 635.672 455.158 635.735C455.139 635.798 455.103 635.856 455.055 635.901C454.985 635.943 454.902 635.962 454.82 635.955ZM450.3 629.832H450.065C449.686 629.832 449.469 629.995 449.451 630.176C449.324 631.151 452.163 633.788 454.26 634.908C453.808 633.354 452.47 629.832 450.3 629.832Z" fill="#407BFF"/>
<path d="M401.376 181.9L398.338 181.413C398.338 181.413 400.128 183.526 401.376 181.9Z" fill="#0F264C"/>
<path d="M288.267 55.6844C285.067 59.6942 267.439 64.4083 253.427 63.1078C248.6 94.7521 265.468 131.183 265.468 131.183C265.468 131.183 302.08 126.83 302.984 111.766C303.888 96.7028 288.267 55.6844 288.267 55.6844Z" fill="#77B3FC"/>
<path d="M565.416 31.6082C568.688 36.2139 585.304 40.7835 598.159 38.3994C605.047 75.8595 592.283 120.364 592.283 120.364C592.283 120.364 558.166 117.329 556.123 99.4301C554.08 81.5309 565.416 31.6082 565.416 31.6082Z" fill="#77B3FC"/>
<path d="M325.44 356.034C325.18 356.072 324.914 356.058 324.66 355.993C324.405 355.929 324.165 355.814 323.955 355.656C323.745 355.498 323.568 355.3 323.435 355.074C323.302 354.847 323.215 354.596 323.18 354.336L280.24 50.0492C280.205 49.7805 280.224 49.5075 280.296 49.2463C280.369 48.9852 280.493 48.7412 280.661 48.5289C280.83 48.3166 281.04 48.1404 281.278 48.0106C281.516 47.8808 281.778 47.8002 282.048 47.7734C282.309 47.7378 282.575 47.7539 282.83 47.8209C283.085 47.8879 283.324 48.0043 283.534 48.1637C283.743 48.323 283.92 48.5221 284.053 48.7495C284.186 48.977 284.272 49.2284 284.308 49.4893L327.248 353.758C327.283 354.027 327.264 354.3 327.191 354.561C327.119 354.822 326.995 355.066 326.826 355.278C326.657 355.491 326.448 355.667 326.21 355.797C325.972 355.926 325.71 356.007 325.44 356.034Z" fill="#0053CC"/>
<path d="M530.051 333.421C530.32 333.456 530.594 333.437 530.855 333.364C531.116 333.292 531.361 333.168 531.573 332.999C531.786 332.831 531.962 332.621 532.092 332.384C532.222 332.146 532.303 331.884 532.329 331.614L575.36 27.3456C575.398 27.0847 575.385 26.8187 575.32 26.563C575.255 26.3073 575.141 26.0668 574.983 25.8554C574.825 25.644 574.627 25.4658 574.4 25.331C574.173 25.1962 573.922 25.1075 573.66 25.0699C573.391 25.0347 573.118 25.0538 572.856 25.1262C572.595 25.1986 572.351 25.3227 572.138 25.4911C571.926 25.6596 571.749 25.869 571.62 26.1069C571.49 26.3448 571.409 26.6064 571.382 26.876L528.352 331.145C528.279 331.671 528.417 332.205 528.735 332.631C529.053 333.056 529.526 333.34 530.051 333.421Z" fill="#0053CC"/>
<path d="M278.522 56.4792L286.658 116.228C286.708 116.605 286.839 116.968 287.042 117.29C287.246 117.612 287.516 117.886 287.836 118.094C288.155 118.302 288.516 118.438 288.893 118.493C289.271 118.548 289.655 118.521 290.021 118.413C308.21 113.211 409.349 87.2745 564.711 103.783C565.37 103.859 566.035 103.684 566.571 103.292C567.107 102.9 567.476 102.321 567.603 101.67C570.532 86.534 575.577 43.4205 576.86 32.3848C576.937 31.6891 576.738 30.991 576.305 30.4405C575.872 29.8901 575.241 29.5311 574.546 29.4407C553.682 26.8037 411.266 11.0358 280.348 53.5893C279.756 53.7853 279.25 54.1805 278.917 54.7075C278.584 55.2346 278.445 55.8608 278.522 56.4792Z" fill="#9FC6FF"/>
<path d="M304.612 66.919L313.182 65.1128L319.239 80.8446L320.775 63.5775L329.327 61.7714L336.83 77.1961L336.939 60.2361L345.473 58.4299L344.352 88.9543L335.511 90.7605L327.031 73.3851L325.223 92.8195L316.382 94.6257L304.612 66.919Z" fill="white"/>
<path d="M349.667 58.1048L374.057 54.4924L374.852 60.7779L359.593 63.0176L360.19 67.7137L374.346 65.6365L375.106 71.6511L360.949 73.7282L361.6 79.5622L377.311 77.2683L378.161 83.9512L353.319 87.5635L349.667 58.1048Z" fill="white"/>
<path d="M380.259 53.788L389.407 52.7946L391.36 75.137L405.625 73.6017L406.276 80.8264L382.772 83.3551L380.259 53.788Z" fill="white"/>
<path d="M428.604 67.0273L436.758 68.8335C436.421 70.92 435.651 72.9131 434.498 74.6855C433.441 76.2811 431.998 77.5854 430.304 78.4785C428.273 79.4559 426.065 80.009 423.813 80.104C421.125 80.3903 418.407 80.1009 415.84 79.2551C413.617 78.2954 411.73 76.6989 410.416 74.6674C408.685 72.0104 407.75 68.9147 407.722 65.7449C407.248 61.5863 408.444 57.4096 411.049 54.1312C412.444 52.6514 414.124 51.468 415.988 50.6518C417.852 49.8356 419.862 49.4033 421.897 49.3809C424.965 48.9803 428.081 49.5487 430.81 51.0065C433.206 52.598 435.011 54.9341 435.945 57.6532L427.935 60.0374C427.715 59.3419 427.379 58.6885 426.941 58.1048C426.387 57.4488 425.679 56.9399 424.88 56.6237C423.58 56.0934 422.133 56.05 420.804 56.5014C419.475 56.9527 418.354 57.8685 417.648 59.0801C416.77 60.9361 416.437 63.0031 416.69 65.0405C416.846 68.3277 417.449 70.5493 418.498 71.7053C419.043 72.2814 419.717 72.7208 420.465 72.9876C421.213 73.2543 422.013 73.341 422.801 73.2405C423.542 73.2315 424.274 73.0659 424.947 72.7546C425.62 72.4433 426.219 71.9934 426.706 71.4344C427.706 70.1518 428.359 68.6344 428.604 67.0273Z" fill="white"/>
<path d="M440.103 63.5775C439.962 61.4999 440.234 59.4149 440.904 57.4432C441.575 55.4714 442.63 53.652 444.009 52.0902C445.487 50.6365 447.243 49.4941 449.171 48.7309C451.1 47.9676 453.162 47.5991 455.236 47.647C457.295 47.4422 459.374 47.6567 461.347 48.2776C463.321 48.8985 465.147 49.9129 466.717 51.2594C468.126 52.7218 469.22 54.4571 469.932 56.3582C470.645 58.2593 470.959 60.2859 470.857 62.3132C471.014 65.2796 470.456 68.2403 469.23 70.9467C468.124 73.2008 466.383 75.0838 464.222 76.3653C461.708 77.7677 458.875 78.5015 455.996 78.4965C453.151 78.6962 450.299 78.2389 447.661 77.16C445.391 76.1175 443.497 74.4022 442.237 72.2472C440.754 69.6031 440.017 66.6069 440.103 63.5775ZM449.27 63.3246C449.11 65.6124 449.749 67.8846 451.078 69.7546C451.642 70.3919 452.348 70.8874 453.14 71.2012C453.932 71.515 454.786 71.6382 455.634 71.5608C456.501 71.5803 457.361 71.4036 458.15 71.0439C458.939 70.6842 459.637 70.1508 460.19 69.4837C461.451 67.3834 461.991 64.9288 461.727 62.4938C461.882 60.3131 461.239 58.1504 459.919 56.407C459.341 55.7721 458.625 55.2789 457.825 54.9657C457.025 54.6524 456.164 54.5276 455.309 54.6008C454.459 54.5982 453.619 54.7868 452.852 55.1526C452.086 55.5185 451.411 56.0521 450.879 56.714C449.607 58.6644 449.039 60.9901 449.27 63.3066V63.3246Z" fill="white"/>
<path d="M476.426 47.5747H488.485L492.644 65.7629L497.76 47.7011L509.82 47.8095L509.006 77.6114H501.485L502.099 54.8717L495.699 77.5573H488.901L483.748 54.7633L483.134 77.5031H475.612L476.426 47.5747Z" fill="white"/>
<path d="M516.437 48.0985L540.971 49.2003L540.592 55.558L525.224 54.8717L524.916 59.6942L539.163 60.3263L538.784 66.3048L524.537 65.6726L524.175 71.5608L539.977 72.2471L539.543 79.0022L514.557 77.8824L516.437 48.0985Z" fill="white"/>
</g>
<defs>
<clipPath id="clip0_166_41043">
<rect width="904" height="673" fill="white"/>
</clipPath>
</defs>
</svg>
